<?xml version="1.0" encoding="utf-8"?>
<!-- Generator: Adobe Illustrator 26.0.2, SVG Export Plug-In . SVG Version: 6.00 Build 0)  -->
<svg version="1.1" id="Слой_1" xmlns="http://www.w3.org/2000/svg" xmlns:xlink="http://www.w3.org/1999/xlink" x="0px" y="0px"
	 viewBox="0 0 2048 2048" style="enable-background:new 0 0 2048 2048;" xml:space="preserve">
<style type="text/css">
	.st0{fill:#00A99A;}
	.st1{fill:none;stroke:#FFFFFF;stroke-width:7;stroke-miterlimit:10;}
</style>
<g>
	<circle class="st0" cx="1024" cy="1024" r="1024"/>
</g>
<path id="XMLID_1_" class="st1" d="M985.3,1001L985.3,1001 M1298.4,1049.2L1298.4,1049.2 M581.9,1063.6l7.8-1.7 M1476.6,1095.7
	l-1.1-0.6 M1490.4,1073l-33.8-10.5 M858.6,819.6L858.6,819.6 M1426.2,973.9l-20.5-4.4 M569.2,1032.6l44.3-12.2 M906.2,1039.2
	l-1.1,3.3 M1503.7,1042l-71.4-22.1 M1426.2,973.9l-6.6,22.7 M518.9,1116.7l49.8-19.4 M581.9,1063.6l2.8,5.5 M586.9,1073l0.5,1.1
	 M640.6,915.8l31.5-6.1 M607.9,1102.3L607.9,1102.3 M533.8,1130.5l18.3-6.6 M555.9,992.7l84.7-23.2 M640.6,915.8l7.8,38.2
	 M503.4,1094.5l78.6-30.4 M569.2,1032.6l13.3,31 M1437.3,923.6l-63.1-13.8 M1340.5,840l-0.6,6.1 M1548.5,1126.6l-71.9-31
	 M1475.5,1096.8l1.1-1.1 M1490.4,1073l-13.8,22.7 M1517.5,1002.7l-91.3-28.2 M1437.3,923.6l-11.1,50.3 M1532.5,1140.5l-39.3-16.6
	 M488.4,1064.1l80.8-31.5 M555.9,992.7l13.3,39.8 M1564.6,1105.1l-74.1-32.1 M1503.7,1042l-13.3,31 M1517,1147.7l-8.8-3.9
	 M907.8,1034.2v1.1 M905.6,1039.2L905.6,1039.2 M1340.5,840l-4.4-1.1 M543.2,942.9l97.9-27.7 M630.1,855.5l10.5,60.3 M1580.6,1075.7
	l-76.9-33.2 M1517.5,1002.7l-13.3,39.8 M630.1,855.5l79.7-15.5 M733.5,760.9l2.8,29.9 M645.6,1107.8l1.1-0.6 M472.9,1024.8l83-32.6
	 M543.2,942.9l13.3,49.8 M543.8,1134.9l-10-4.4 M472.9,1163.2l60.9-32.6 M518.9,1116.7l14.9,13.8 M1531.4,952.9l-94.1-29.3
	 M1448.4,863.3l-11.1,60.3 M455.8,1150.4l63.1-33.8 M503.4,1094.5l15.5,22.1 M1448.4,863.3L1340.5,840 M1349.3,767l-8.3,73
	 M490.6,1169.8l48.7-26 M1422.4,1115.6l-1.1-0.6 M438.6,1129.4l64.7-34.9 M488.4,1064.1l14.9,30.4 M1596.6,1036.4l-79.1-33.8
	 M1531.4,952.9l-13.8,49.8 M1589.4,1174.8l-57-34.3 M1517,1147.7l15.5-7.2 M1548.5,1126.6l-16.1,13.3 M1176.7,1027.6l-3.9-0.6
	 M1607.2,1162l-58.7-34.9 M1564.6,1105.1l-16.1,21.6 M754.5,1047l-1.7,3.3 M507.2,1169.2l19.4-10.5 M1572.3,1180.3l-55.3-32.6
	 M1510.9,1147.7h6.1 M733.5,760.9l21-2.2 M421.5,1100.1l66.9-36 M472.9,1024.8l15.5,39.3 M1625.4,1141.6l-60.9-36.5 M1580.6,1075.7
	l-16.1,29.9 M529.9,883.2l100.1-27.7 M620.1,783l10,72.5 M1349.3,767l-57.5-8.3 M458,976.7l85.2-33.2 M529.9,883.2l13.3,59.8
	 M1554,1179.8l-33.2-19.9 M1642.6,1112.8l-62-37.6 M1596.6,1036.4l-16.1,39.3 M1545.2,893.7l-96.8-30.4 M1460,791.3l-11.6,71.9
	 M996.3,976.7L996.3,976.7 M1612.7,988.3l-81.3-34.9 M1545.2,893.7l-13.3,59.2 M620.1,783l113.4-22.1 M655.5,1091.2l2.2-1.1
	 M614,1106.7l2.2-0.6 M404.3,1062.4l68.6-37.6 M458,976.7l14.9,48.7 M753.5,1047.5l1.1-0.6 M1521.9,1164.8l-1.7-0.6 M490.6,1169.8
	l-17.7-6.1 M426.5,1199.7l46.5-36.5 M455.8,1150.4l17.1,13.3 M407.1,1188.1l48.7-37.6 M438.6,1129.4l17.1,20.5 M1221.5,1014.9
	l-3.9-1.1 M1460,791.3L1349.3,767 M507.2,1169.2l-17.1,0.6 M444.7,1204.7l45.4-34.9 M388.8,1168.1l50.4-38.7 M421.5,1100.1
	l17.7,29.3 M1660.3,1075.2l-63.6-38.7 M1612.7,988.3l-16.1,48.1 M522.2,1164.3l-14.4,5 M463.5,1203.5l44.3-34.3 M1631.5,1211.8
	l-42.1-37.6 M1572.3,1180.3l17.7-6.1 M1607.2,1162l-17.7,12.7 M1650.9,1200.2l-43.7-38.2 M1625.4,1141.6l-18.3,20.5 M442.5,916.9
	l87.4-33.8 M517.2,811.8l13.3,71.4 M1612.7,1216.8l-40.4-36.5 M1554,1179.8l18.3,0.6 M517.2,811.8L620.7,783 M370,1140.5l50.9-39.8
	 M404.3,1062.4l17.1,37.6 M1669.7,1181.4l-44.8-39.8 M1642.6,1112.8l-17.7,28.8 M387.2,1014.3l70.8-37.6 M442.5,916.9l15.5,59.2
	 M481.8,1196.3l37.1-28.2 M1593.9,1215.2l-39.8-34.9 M1536.3,1173.7l17.7,6.1 M995.8,976.7L995.8,976.7 M614,1104.5l-1.7,1.1
	 M1628.2,928.6l-83-34.9 M1559,822.3l-13.8,71.4 M1559,822.3l-99-31 M1574.5,1207.4l-38.2-33.8 M1528.6,1168.1l7.8,5.5
	 M1461.6,1122.2l-1.7-1.1 M1689,1153.2l-45.9-40.4 M1660.3,1075.2l-17.7,37.6 M1678.5,1027l-65.8-39.3 M1628.2,928.6l-15.5,59.2
	 M541,1152.6l1.1-1.1 M512.2,1175.3l2.8-1.7 M351.8,1103.4l52.6-40.9 M387.2,1014.3l17.1,48.1 M444.7,1204.7l-18.8-5 M398.8,1234
	l27.7-34.3 M407.1,1188.1l18.8,11.6 M463.5,1203.5l-18.8,1.1 M414.8,1242.3l29.9-37.6 M1263.6,1002.2l-2.8-1.1 M378.9,1223.5
	l28.8-35.4 M388.8,1168.1l18.8,19.9 M481.8,1196.3l-18.8,7.2 M433.6,1240.1l29.3-36.5 M355.6,1209.6l33.2-41.5 M370,1140.5
	l18.8,27.7 M427,846.7l89.6-34.9 M369.5,956.2l72.5-39.3 M427,846.7l14.9,70.3 M1707.8,1116.7l-47.6-42.1 M1678.5,1027l-18.3,47.6
	 M772.8,1003.2l2.2-0.5 M1647,1235.1l-15.5-23.2 M1612.7,1216.8l18.8-5 M1650.9,1200.2l-18.8,11.6 M522.7,1164.8l1.1-0.6
	 M527.7,1160.9l2.2-1.7 M1630.4,1242.8l-17.7-26 M1593.9,1215.2l18.8,1.7 M1666.9,1224.6l-16.1-24.3 M1669.7,1181.4l-18.8,18.8
	 M501.1,1184.2l-18.8,12.2 M453.6,1231.8l28.2-35.4 M1616.6,1249.5l-23.2-34.3 M1574.5,1207.4l18.8,7.8 M332.4,1056.4l54.8-42
	 M369.5,956.2l17.7,58.1 M1644.2,858.8l-85.2-36.5 M335.7,1182.5l34.3-42.1 M351.8,1103.4l18.8,37.1 M1689,1210.2l-19.4-28.8
	 M1689,1153.2l-18.8,27.7 M1695.7,969.5l-67.5-40.9 M1644.2,858.8l-16.1,69.7 M1598.9,1242.8l-23.8-35.4 M1555.7,1194.7l18.8,12.7
	 M519.4,1167.6l-18.8,16.6 M473.5,1217.9l27.7-34.3 M1726.7,1070.8l-48.7-43.2 M1695.7,969.5L1678,1027 M1715.6,1193.6l-26.6-39.8
	 M1707.8,1116.7l-18.8,36.5 M1353.8,1027.6l-1.1-0.6 M433.6,1240.1l-18.8,2.8 M1578.4,1229.5l-23.2-34.9 M1536.3,1177l18.8,17.7
	 M315.8,1147.1l35.4-43.7 M332.4,1056.4l18.8,47 M355.6,1209.6l1.7,1.1 M453.6,1231.8l-19.9,8.3 M430.3,1250l3.3-10.5 M532.1,1153.2
	l-12.7,13.8 M492.9,1199.7l26.6-32.6 M352.9,887.1l74.7-39.8 M314.1,999.4l55.9-43.2 M352.9,887.1l17.1,69.2 M355.1,1209.6
	L355.1,1209.6 M335.7,1182.5l19.9,27.1 M473.5,1217.9l-19.4,13.3 M444.2,1256.7l9.4-25.4 M602.4,1079.1l-1.1,1.7 M1737.2,1161.5
	l-29.3-44.8 M1726.7,1070.8l-18.8,46.5 M1558.5,1210.7l-22.1-33.2 M1517.5,1156l18.8,21 M1598.9,1242.8l15.5,7.2 M1713.4,900.9
	l-69.2-42 M529.9,1156l1.7-1.1 M492.9,1199.7l-19.4,18.3 M459.7,1253.3l13.3-34.9 M296.4,1101.7l36-44.8 M314.1,999.4l18.8,57
	 M1601.6,1256.1l-2.8-13.3 M1578.4,1229.5l19.9,13.3 M1746,1013.8l-50.3-44.3 M1713.4,900.9l-17.7,68.6 M331.9,1193l3.3-10.5
	 M315.8,1147.1l19.4,35.4 M1539.1,1188.1l-21.6-32.1 M1498.2,1131.1l18.8,24.9 M1105.3,899.2l-1.7-0.5 M1586.7,1262.7l-7.8-33.2
	 M1558.5,1210.7l19.9,18.8 M579.7,1091.2l1.7-1.1 M652.8,1024.8l1.1-0.6 M926.6,899.8l5.5-0.5 M512.2,1177.5l-19.4,22.1 M480.1,1234
	l12.7-34.3 M1757.7,1116.7l-30.4-45.9 M1746,1013.8l-18.8,57 M1737.2,1161.5l-15.5,27.7 M378.9,1278.8l1.1,0.6 M545.4,1136l3.3-4.4
	 M750.7,934.1l-1.1,1.7 M305.8,1174.2l10-27.1 M296.4,1101.7l19.4,45.4 M295.3,930.8l57-44.3 M1567.3,1245l-8.3-34.9 M1539.1,1188.1
	l19.4,22.7 M459.7,1253.3l-7.8,6.1 M1519.2,1162l-20.5-30.4 M532.1,1152.1l-19.4,25.4 M500.6,1210.7l12.2-32.6 M277.1,1045.3
	l37.1-45.9 M295.3,930.8l18.8,68.6 M1739.9,1172.6l-2.8-11.1 M1757.7,1116.7l-19.9,44.8 M480.1,1234l-20.5,19.4 M460.2,1262.7
	l-0.5-9.4 M1764.8,945.7l-51.4-44.8 M621.8,1043.1l1.7-1.1 M1546.8,1221.2l-7.8-33.2 M1519.2,1162l19.9,26 M1777,1060.8l-31-47
	 M1764.8,945.7l-18.8,68 M279.8,1145.4l16.6-44.3 M277.1,1045.3l19.4,56.4 M319.7,1231.2l-0.5-4.4 M1567.3,1245l18.8,18.3
	 M500.6,1210.7l-19.9,23.2 M481.2,1268.8l-1.1-34.9 M749,935.2l2.2-1.1 M552,1123.3l-19.9,28.8 M520.5,1183.6l11.6-31.5
	 M1526.9,1194.1l-7.8-32.1 M1499.3,1133.3l19.4,28.8 M1562.3,1272.2l4.4-27.1 M1546.8,1221.2l19.9,23.8 M1748.2,1206.9l-2.8,4.4
	 M1764.8,1148.2l-7.8-32.1 M1777,1060.8l-19.4,55.9 M520.5,1183.6l-19.9,27.1 M501.1,1243.9l-1.1-33.2 M601.3,1052.5l-1.7,2.2
	 M591.3,1067.4l2.8-3.3 M257.7,978.3l38.2-47 M571.4,1092.3l-19.4,31 M540.4,1153.7l11.6-30.4 M481.2,1268.8l-1.7,1.1
	 M1541.3,1254.4l5.5-32.6 M1526.9,1194.1l19.9,27.7 M258.8,1093.4l18.3-48.1 M257.7,978.3l19.4,66.9 M1683.5,1323.6l-2.2,1.1
	 M1506.5,1163.2l-7.2-30.4 M1479.3,1101.7l19.9,31.5 M540.4,1153.7l-19.9,29.9 M521.6,1215.7l-1.1-32.1 M1796.9,993.8l-32.1-48.1
	 M1561.8,1279.3L1561.8,1279.3 M501.1,1243.9l-19.9,24.9 M482.3,1271l-1.1-2.2 M621.2,1017.1l-2.8,5 M1721.1,1286l-1.7,2.2
	 M300.9,1238.4l4.4,7.2 M1521.4,1225.7l5.5-32.1 M1506.5,1163.2l20.5,30.4 M591.3,1058.6l-19.4,33.2 M560.3,1121.7l11.1-29.3
	 M1789.2,1108.9l-12.2-48.1 M1796.9,993.8l-19.9,66.4 M258.8,1093.4l17.7,48.1 M1541.3,1254.4l15.5,19.9 M521.6,1215.7l-19.9,28.2
	 M516.6,1276l-14.9-32.6 M433.6,1398.8l-2.2-2.2 M560.3,1121.7l-19.9,32.6 M541.5,1184.2l-1.1-30.4 M1486.5,1130.5l-7.2-28.8
	 M1459.4,1068l19.9,33.8 M1712.3,1300.4l8.3-14.4 M1620.4,1372.3h-2.2 M1523.6,1285.4l18.3-31 M1521.4,1225.7l19.9,28.2
	 M949.9,775.8v1.1 M1789.2,1108.9l-4.4,12.2 M1130.2,810.7l-2.8-0.5 M1501.5,1194.1l5-30.4 M1486.5,1130.5l19.9,32.6 M1657.5,1365.7
	l-2.8,1.1 M303.1,1243.4l-2.2-5 M299.2,1234.5l2.2,3.9 M541.5,1184.2l-19.9,31 M536,1247.2l-14.4-31.5 M1270.2,842.2l1.7,3.9
	 M610.7,1024.3l-19.4,34.9 M580.8,1086.8l10.5-27.7 M238.9,1027.6l18.8-49.8 M516.6,1276l-3.9,5.5 M396.6,1379.5l-36.5-40.9
	 M340.7,1315.3l19.4,22.7 M1559,1336.9l2.2-1.7 M1652,1371.2l5.5-5.5 M580.8,1086.8l-19.9,34.9 M561.5,1150.4l-1.1-29.3
	 M1503.7,1256.7l18.3-31 M1501.5,1194.1l19.9,32.1 M1466.6,1095.7l-7.2-27.7 M1440.1,1032l19.4,35.4 M829.8,826.8l1.1-0.5
	 M712,898.7l1.1-0.5 M259.9,1119.4l-1.1-26 M238.9,1027.6l19.9,65.8 M1715.1,1297.6l26-44.8 M1761,1210.2l-19.9,42.6 M536,1247.2
	l-19.4,29.3 M525.5,1286.5l-8.8-10.5 M1481.6,1159.8l5-29.3 M1466.6,1095.7l19.9,34.9 M561.5,1150.4l-19.9,33.8 M555.4,1214.6
	l-13.8-30.4 M1634.8,1392.2l41.5-39.8 M1695.1,1329.1l-18.8,22.7 M1809.1,1043.6l-12.2-49.8 M491.2,1404.9l-5-3.9 M500.6,1432
	l-1.7-1.1 M378.3,1357.9l-37.6-42.1 M321.3,1283.2l18.8,32.1 M630.6,988.3l-19.9,36 M601.3,1050.8l9.4-26.6 M947.1,776.4l2.8-0.5
	 M1503.7,1256.7l18.8,28.8 M302,1241.7l-21-46.5 M261,1142.1l19.9,53.1 M1483.8,1224l17.7-30.4 M1481.6,1159.8l19.9,34.3
	 M1788.1,1115l1.1-6.1 M1809.1,1043.6l-19.9,65.3 M601.3,1050.8l-20.5,36 M581.9,1114.5l-1.7-27.7 M1591.1,1409.9L1591.1,1409.9
	 M555.4,1214.6l-19.4,32.6 M562.6,1277.1l-26.6-30.4 M1543,1387.8l1.7-1.1 M466.3,1429.8l-50.9-37.1 M396.6,1379.5l18.8,13.3
	 M1446.2,1059.1l-6.6-27.1 M1419.6,996.1l19.9,36 M1192.8,791.3l-2.2-0.5 M1652.5,1370.6l42.6-40.9 M1715.1,1297.6l-19.4,32.1
	 M581.9,1114.5l-20.5,36 M575.3,1179.2l-13.3-28.8 M1508.7,1344.6L1508.7,1344.6 M1341.6,878.8l1.7,2.8 M1461.6,1123.9l4.4-27.7
	 M1446.2,1059.1l19.9,36.5 M1472.2,1286l31-29.3 M1483.8,1224l19.4,32.6 M1733.9,1256.7l27.1-46.5 M1780.9,1157.6l-19.9,52.6
	 M1560.7,1440.9l55.9-36 M1634.8,1392.2l-18.3,13.3 M360.1,1326.9l-38.7-43.2 M302,1241.7l19.4,42.1 M449.1,1417.7l-52.6-38.2
	 M378.3,1357.9l18.8,21.6 M1508.1,1345.2L1508.1,1345.2 M1465,1188.6l16.6-28.8 M1461.6,1123.9l19.4,36 M562.6,1277.1l-10.5,17.7
	 M575.3,1179.2l-19.4,34.9 M580.8,1243.4l-25.5-28.8 M650,951.2l-19.4,37.1 M621.2,1013.2l9.4-25.5 M241.1,1077.4l-2.2-49.8
	 M621.2,1013.2l-19.9,37.6 M601.8,1077.4l-0.5-26.6 M660.5,938.5l1.1-1.1 M1455,1252.2l29.3-27.7 M1465,1188.6l18.8,35.4
	 M957.6,724.4l-2.2,13.3 M953.2,745.4h1.1 M1472.2,1286l7.8,13.3 M601.8,1077.4l-19.9,37.6 M594.1,1142.7l-12.2-27.7 M1577.3,1428.7
	l57.5-37.1 M1652.5,1370.6l-18.3,21.6 M1670.2,1340.2l44.8-42.6 M1733.9,1256.7l-18.8,40.9 M1425.7,1021.5l-6.1-25.5 M1400.2,959
	l19.4,37.6 M517.8,1452.5l-34.3-18.3 M282.6,1189.7l-21.6-47.6 M241.1,1077.4l19.9,64.7 M1441.7,1085.7l4.4-26.6 M1425.7,1021.5
	l20.5,37.6 M580.8,1243.4l-18.8,33.8 M601.8,1305.3l-39.3-27.7 M1445.1,1442l6.6-3.3 M432.5,1397.2l-54.8-39.3 M360.1,1326.9
	l18.3,31 M1343.2,879.9l-1.7-1.1 M1148.5,722.7l0.6,1.1 M594.1,1142.7l-18.8,37.1 M599.6,1206.9l-24.3-27.7 M1445.6,1151l16.1-27.7
	 M1441.7,1085.7l19.9,37.6 M1800.2,1092.9l8.3-49.8 M532.1,1463l-65.8-33.2 M449.1,1417.7l17.1,12.2 M1545.7,1445.3h-1.1
	 M1435.6,1309.8l36.5-23.8 M1455,1252.2l17.7,34.3 M341.8,1286l-39.8-44.8 M282.6,1189.7l19.4,52 M1436.8,1215.7l28.2-27.1
	 M1445.6,1151l18.8,37.6 M1752.7,1204.7l28.2-47 M1800.2,1092.9l-19.4,64.2 M641.1,975l-19.9,38.2 M622.3,1039.2l-1.1-25.5
	 M669.9,914.2l-19.4,37.1 M641.1,975l8.8-23.8 M599.6,1206.9l-18.8,36.5 M617.9,1270.5l-37.1-27.1 M1593.3,1408.8l59.8-38.2
	 M1670.2,1340.2l-17.7,30.4 M601.8,1305.3l-1.7,2.2 M622.3,1039.2l-19.9,38.2 M613.5,1103.9l-11.6-26.6 M679.3,902.6l2.2-2.8
	 M1491,1473l69.7-32.1 M1577.3,1428.7l-16.6,12.2 M517.2,1452l-67.5-34.3 M432.5,1397.2l16.6,20.5 M1405.8,983.3l-5.5-24.3
	 M1380.3,921.4l19.9,37.6 M1421.8,1047l3.9-25.5 M1405.8,983.3l19.9,38.2 M613.5,1103.9l-19.4,38.7 M617.9,1168.7l-23.8-26
	 M1413.5,1278.2l40.9-26 M1436.8,1215.7l18.3,36.5 M720.8,845l2.2-1.1 M1688.5,1300.4l45.4-43.7 M1752.7,1204.7l-18.8,52
	 M1426.2,1111.7l15.5-26 M1421.8,1047l19.9,38.7 M416,1367.3l-55.9-40.4 M341.8,1286l18.8,40.4 M1272.4,789.1l-2.8-1.1
	 M1238.7,767.5l3.9,8.8 M617.9,1270.5l-16.6,34.9 M611.8,1310.3l-10-5.5 M1434.5,1447l1.1,1.1 M622.9,1494.6l-2.8-1.1 M617.9,1168.7
	l-18.8,38.2 M635,1232.9l-35.4-26 M919.4,691.2v1.1 M896.8,723.8l2.2-0.5 M1418.5,1177l27.1-25.4 M1426.2,1111.7l19.4,39.3
	 M1504.8,1461.9l71.9-32.6 M1593.3,1408.8l-16.1,20.5 M1149.6,723.3l-1.7-0.5 M1413.5,1278.2l15.5,33.2 M661,936.9L641.1,975
	 M642.2,999.4l-1.1-24.3 M1609.4,1379.5l60.9-39.3 M1688.5,1300.4l-18.3,39.8 M262.7,1126.1l-22.1-49.2 M642.2,999.4l-19.9,39.8
	 M633.4,1063.6l-11.1-24.9 M689.3,877.1l-19.4,37.1 M661,936.9l8.3-22.7 M1397.5,1240.6l39.3-25.4 M1418.5,1177l18.3,38.7
	 M610.2,1491.8l-78-28.8 M517.2,1452l14.9,11.1 M502.3,1432l-69.7-34.9 M416,1367.3l17.1,29.9 M635,1232.9l-17.2,37.6 M666,1294.3
	l-48.1-23.8 M633.4,1063.6l-19.4,39.8 M636.2,1128.8l-22.7-25.4 M698.7,865.5l2.8-3.3 M1401.9,1007.1l3.9-23.8 M1385.8,944
	l19.9,39.3 M323,1235.1l-40.4-45.4 M262.7,1126.1l19.4,63.6 M1385.8,944l-5.5-22.7 M1360.4,884.3l19.9,37.6 M1407.4,1071.9
	l14.4-24.9 M1401.9,1007.1l19.9,39.8 M1363.2,1301.5l50.3-23.2 M1397.5,1240.6l16.1,37.6 M636.2,1128.8l-18.3,39.8 M652.2,1193.6
	l-34.3-24.9 M699.8,1507.3l-11.1-2.8 M622.9,1494.6l1.7-0.6 M1408.5,1500.1l82.4-27.1 M1504.8,1461.9L1491,1473 M1400.8,1136.6
	l25.4-24.9 M1407.4,1071.9l18.8,39.8 M666,1294.3l-11.1,26 M1519.7,1442.6l73.6-33.8 M1609.4,1379.5l-16.6,29.3 M1772.6,1141.6
	l28.2-48.7 M398.8,1327.5l-57-41.5 M323,1235.1l18.8,50.9 M597.4,1481.3l-80.8-29.9 M502.3,1432l14.4,19.9 M709.2,1517.2l-10.5-2.8
	 M652.2,1193.6l-17.2,39.8 M681,1256.1l-45.4-22.7 M1326.1,1512.3l59.8-14.4 M1092.1,659.7l1.1,6.1 M1381.4,1201.3l37.6-24.3
	 M1400.8,1136.6l18.3,39.8 M1363.2,1301.5l8.8,23.2 M1706.2,1249.5l46.5-44.8 M1772.6,1141.6l-19.4,63.1 M662.2,959.5l-19.9,39.8
	 M652.8,1023.2l-10.5-23.8 M681.5,899.2l-19.9,37.6 M662.2,959.5l-1.1-22.7 M652.8,1023.2l-19.4,40.4 M655,1087.9l-21.6-24.3
	 M1307.8,1523.3l11.6-2.8 M1349.3,1262.7l48.7-22.1 M1381.4,1201.3l16.6,39.8 M708.6,840.6l-19.4,37.1 M681.5,899.2l7.8-21.6
	 M1420.7,1489.6l84.1-27.7 M1519.7,1442.6l-14.4,19.4 M681,1256.1l-14.4,38.2 M723,1315.3l-57-21 M487.3,1403.8l-71.4-36.5
	 M398.8,1327.5l17.1,39.8 M655,1087.9l-18.8,40.9 M668.8,1152.6l-32.6-23.2 M699.2,1515.6l-89.1-23.2 M597.4,1481.3l12.7,10.5
	 M1625.4,1340.2l62.5-39.8 M1706.2,1249.5l-18.3,50.9 M1381.4,966.7l3.9-22.7 M1365.9,905.3l19.9,38.7 M1388.1,1030.9l13.3-23.8
	 M1381.4,966.7l19.9,39.8 M743.5,786.4l-3.9,7.8 M718.6,828.4l2.8-3.3 M709.7,1517.2l1.7-1.1 M1365.9,905.3l-5.5-21 M1340.5,847.2
	l19.4,37.1 M1382.5,1095.1l24.3-23.2 M1388.1,1030.9l18.8,40.9 M1169.5,676.3l0.6,1.7 M1303.4,1321.4l59.8-19.9 M1349.3,1262.7
	l13.8,38.7 M723,1315.3l-5.5,16.1 M668.8,1152.6l-16.6,40.9 M695.9,1215.7l-43.7-22.1 M585.2,1462.5l-82.4-30.4 M487.3,1403.8
	l14.9,28.2 M1365.4,1159.8l35.4-22.7 M1382.5,1095.1l18.3,41.5 M1317.2,1521.7l91.8-21.6 M1420.7,1489.6l-12.2,10.5 M1533.6,1413.8
	l76.3-34.9 M1625.4,1340.2l-16.1,39.3 M803.8,1534.4l-94.1-17.2 M699.2,1515.6l10,1.7 M782.2,736.6l-1.7,2.8 M761.2,772l2.2-1.1
	 M1303.4,1321.4l4.4,13.3 M695.9,1215.7l-14.9,40.4 M735.2,1276l-54.8-20.5 M1334.9,1222.3l45.9-21 M1365.4,1159.8l16.1,41.5
	 M689.8,1505.6l-92.4-23.8 M585.2,1462.5l12.7,18.8 M682.1,920.3l-19.9,39.8 M672.1,982.2l-10-22.7 M1212.1,1538.3l96.3-14.9
	 M1317.2,1521.7l-8.8,1.7 M672.1,982.2l-19.4,40.9 M673.2,1046.4l-20.5-22.7 M1432.3,1471.3l87.4-28.8 M1533.6,1413.8l-13.8,28.2
	 M735.2,1276l-12.7,39.3 M787.8,1332.4l-64.7-17.2 M701.4,860.5l-19.9,38.2 M682.1,920.3l-1.1-21 M1087.1,635.3l0.6,2.2
	 M1291.8,1281.6l57-18.8 M1334.9,1222.3l13.8,40.4 M1182.2,1452.5L1182.2,1452.5 M1182.2,1452.5L1182.2,1452.5 M304.7,1173.1
	l-41.5-47 M804.3,1533.3l1.1-0.6 M673.2,1046.4l-18.8,42.1 M686,1110.6l-31-22.7 M729.1,804.6l-19.9,36 M701.4,860.5l7.8-20.5
	 M382.2,1278.2l-59.2-42.6 M304.7,1173.1l18.8,62 M787.8,1332.4l-2.2,8.8 M1120.3,1458.1l62-5.5 M797.2,1532.7l-97.9-17.2
	 M689.8,1505.6l9.4,10 M686,1110.6l-17.2,42.1 M710.8,1173.7l-42-21 M1237,1336.9l66.4-15.5 M1291.8,1281.6l11.6,39.8 M1368.7,989.4
	l13.3-22.7 M1362.1,926.9l19.4,39.8 M1362.1,926.9l3.3-21.6 M1345.5,867.7l19.9,37.6 M1326.1,1511.7l94.6-22.1 M1432.3,1471.3
	l-11.6,18.3 M1364.8,1053.6l23.8-22.7 M1368.7,989.4l19.4,41.5 M1348.8,1116.7l34.3-21.6 M1364.8,1053.6l18.3,42.1 M710.8,1173.7
	l-14.9,42.1 M747.9,1235.1l-52-19.4 M1237,1336.9l2.2,7.8 M903.9,1544.9l-100.1-11.1 M797.2,1532.7l6.6,1.1 M1345.5,867.7l-5-20.5
	 M1320.6,810.2l19.9,37.1 M472.4,1365.1l-73.6-37.6 M382.2,1278.2l16.6,49.8 M761.8,752.1l-1.1,2.2 M739.6,791.3l2.8-3.3
	 M1008,1539.4L1008,1539.4 M1004.6,1461.9h-3.9 M1217.1,1537.2l99.6-15.5 M1326.1,1511.7l-8.8,10 M904.5,1544.4L904.5,1544.4
	 M1320.6,1179.8l44.8-20.5 M1348.8,1116.7l16.6,42.6 M747.9,1235.1l-12.7,41.5 M797.7,1292.6l-62-16.1 M1110.3,1547.1l101.8-8.8
	 M1217.1,1537.2l-5.5,1.1 M1217.1,1537.2l-5.5,1.1 M572.5,1434.8l-85.2-31 M472.4,1365.1l14.9,38.7 M1006.8,1549.3l0.5-6.1
	 M1280.7,1240.1l54.8-18.3 M1320.6,1179.8l14.4,42.1 M1724.4,1187.5l48.1-45.9 M797.7,1292.6l-10,39.8 M858.6,1345.2l-71.4-12.7
	 M858.6,1345.2l-1.1,4.4 M1642,1290.4l64.2-41.5 M1724.4,1187.5l-18.3,61.4 M1227.6,1297l64.2-15.5 M1280.7,1240.1l11.6,41.5
	 M679.9,1487.4l-94.6-24.9 M572.5,1434.8l12.7,27.7 M779.5,738.8l2.8-2.2 M1006.8,1549.3l-103.5-4.4 M900.1,1543.8l3.3,1.1
	 M692,941.3l-19.4,40.9 M692,1003.8l-19.4-21.6 M1164,1348.5l72.5-11.1 M1227.6,1297l8.8,39.8 M702.5,881.5l-19.9,38.7 M692,941.3
	l-9.4-21 M1164,1348.5l0.6,2.8 M1164,1348.5l0.6,2.8 M692,1003.8l-18.8,42 M703.1,1067.4l-29.3-21 M790,1523.3l-100.1-17.7
	 M679.9,1487.4l10,18.3 M1547.4,1376.2l78-36 M1642,1290.4l-16.6,49.8 M1006.8,1549.3l103.5-2.2 M1113.1,1546l-2.8,1.1
	 M900.1,1543.8l-103.5-11.1 M790,1523.3l7.2,9.4 M721.4,823.4l-19.9,37.6 M702.5,881.5l-1.1-20.5 M703.1,1067.4l-17.2,43.2
	 M725.2,1130.5l-39.8-19.9 M1006.3,1548.2l0.5,1.1 M1084.9,633.1l-2.8-0.5 M1443.9,1443.7l89.6-29.9 M1547.4,1376.2l-13.8,37.6
	 M725.2,1130.5l-14.4,43.2 M760.6,1191.9l-49.8-18.3 M933.8,1353.5v1.1 M1113.1,1546l104-8.8 M1223.2,1527.8l-6.1,8.8
	 M1223.2,1527.8l-6.1,8.8 M975.9,607.1l-0.5,1.7 M953.7,633.7h1.1 M1346.6,1010.4l22.1-21 M1349.9,947.9l18.8,41.5 M1349.9,947.9
	l12.7-21 M1342.1,887.6l19.9,39.3 M1088.7,1354.6L1088.7,1354.6 M1334.9,1494l97.4-22.7 M1443.9,1443.7l-11.6,27.7 M748.5,769.2
	l-19.4,34.9 M721.4,823.4l7.8-18.8 M760.6,1191.9l-12.7,42.6 M807.7,1250.6l-59.8-15.5 M1223.2,1527.8l102.9-16.1 M1334.9,1494
	l-8.8,17.7 M1332.7,1073.5l32.1-20.5 M1346.6,1010.4l18.3,42.6 M865.8,1304.8l-7.2,40.4 M933.8,1353.5l-75.2-8.3 M807.7,1250.6
	l-10,42.1 M865.8,1304.8l-68-12.2 M1010.7,1356.2L1010.7,1356.2 M1342.1,887.6l3.3-20.5 M1325,829.5l20.5,37.6 M1306.7,1136
	l42.1-19.4 M1332.7,1073.5l16.1,43.2 M937.1,625.9l-1.7,3.9 M932.7,636.4l1.7-0.5 M834.8,672.9l-5.5,10 M1159,1307.6l5.5,40.4
	 M1088.7,1354.6l75.8-6.1 M1159,1307.6l5.5,40.4 M1268.6,1196.9l52-17.2 M1306.7,1136l13.8,43.7 M1152.4,644.7l-2.2-0.5
	 M1006.3,1548.2l-106.2-4.4 M896.2,1534.9l3.9,8.3 M1218.8,1254.4l61.4-14.4 M1268.6,1196.9l12.2,43.2 M1159,1307.6l69.2-11.1
	 M1218.8,1254.4l8.8,42.1 M1325,829.5l-4.4-19.4 M1300.6,775.3l19.9,34.9 M780.6,720l-18.8,32.1 M760.6,754.3l1.1-2.2
	 M1006.3,1548.2l106.8-2.2 M1115.8,1537.2l-2.8,8.3 M937.1,1312.5l-3.3,40.9 M1010.7,1356.2l-76.9-3.3 M1005.7,1539.4l0.5,8.3
	 M1010.7,1356.2l77.5-1.7 M1085.4,1314.2l2.8,40.4 M896.2,1534.9L790,1523.3 M782.8,1505.6l7.2,17.7 M1011.3,1315.3l-0.5,40.9
	 M872.4,1262.2l-6.6,42.1 M937.1,1312.5l-71.4-7.8 M709.7,961.8l-18.3,42 M719.1,1024.3l-27.7-20.5 M711.4,901.5L692,941.3
	 M709.7,961.8l-18.3-20.5 M719.1,1024.3l-16.6,43.2 M740.2,1086.8l-37.6-19.4 M722.5,842.8l-19.9,38.7 M711.4,901.5l-8.8-19.9
	 M817.1,1206.9l-9.4,43.7 M872.4,1262.2l-64.7-11.6 M740.2,1086.8l-14.9,43.7 M772.8,1148.2l-47.6-17.7 M782.8,1505.6l-103.5-18.3
	 M669.9,1460.3l10,27.1 M1115.8,1537.2l107.9-9.4 M1229.3,1510.6l-6.1,17.7 M1229.3,1510.6l-6.1,17.7 M772.8,1148.2l-12.7,44.3
	 M817.1,1206.9l-56.4-14.9 M1152.9,1264.9l6.1,42.6 M1085.4,1314.2l73-6.1 M1152.9,1264.9l6.1,42.6 M803.8,697.8l-4.4,7.2
	 M780.6,720l1.7-1.1 M669.9,1460.3l-97.4-25.4 M560.3,1397.2l12.2,37.6 M741.8,786.9l-20.5,36.5 M722.5,842.8l-1.1-19.4
	 M560.3,1397.2l-88-32.6 M458,1316.4l14.4,48.7 M458,1316.4l-75.8-38.2 M365,1216.8l17.1,61.4 M365,1216.8l-60.9-43.7
	 M1152.9,1264.9l66.4-10.5 M1209.9,1210.7l8.8,43.7 M1316.1,1030.4l30.4-19.9 M1328.3,968.4l18.3,42 M1328.3,968.4l21-20.5
	 M1330,907l19.4,40.9 M1292.3,1092.3l39.8-18.3 M1316.1,1030.4l16.6,43.2 M941.6,1269.4l-3.9,42.6 M1011.3,1315.3l-74.1-3.3
	 M1209.9,1210.7l58.7-13.8 M1256.9,1152.6l11.6,44.3 M1256.9,1152.6l49.8-16.6 M1292.3,1092.3l13.8,44.3 M1330,907l12.2-19.4
	 M1322.2,848.3l19.9,39.3 M1174.5,628.7l0.6,1.1 M1229.3,1510.6l105.7-16.1 M1343.8,1466.9l-8.3,27.1 M1011.3,1315.3l74.1-1.1
	 M1083.2,1271l2.8,43.2 M1005.7,1539.4l-109.5-4.4 M892.9,1517.8l3.3,17.7 M767.8,735.5l-19.4,33.8 M741.8,786.9l6.6-17.7
	 M1011.8,1272.7l-0.5,42.6 M1077.1,608.2h-1.1 M1057.2,606.5h-2.8 M1322.2,848.3l2.8-18.8 M1305.1,793l19.9,37.1 M1005.7,1539.4
	l109.6-2.2 M1118.1,1520l-2.8,17.2 M1343.8,1466.9l100.1-23.2 M1456.1,1406.6l-12.2,37.6 M879,1217.9l-7.2,44.3 M941.6,1269.4
	l-69.2-7.2 M1005.2,1522.8l0.5,17.2 M1456.1,1406.6l91.8-30.4 M1561.8,1327.5l-13.8,48.7 M1305.1,793l-4.4-17.7 M1280.7,741
	l19.4,34.3 M1146.8,1220.7l6.1,44.3 M1083.2,1271l69.7-6.1 M1146.8,1220.7l6.1,44.3 M827,1162.6l-10,44.8 M879,1217.9l-62-11.1
	 M1561.8,1327.5l80.8-37.1 M1658.1,1230.1L1642,1291 M787.2,709.5l-6.6,10.5 M1137.4,618.2l-2.2-0.5 M785.5,1103.4l-12.7,44.8
	 M827,1162.6l-54.2-14.4 M1198.3,639.2l3.3,6.1 M1658.1,1230.1l66.4-42.1 M755.7,1042.5l-14.9,44.3 M785.5,1103.4l-44.8-16.6
	 M736.3,981.1l-17.2,43.2 M755.7,1042.5l-36-18.3 M892.9,1517.8l-109.5-11.6 M776.1,1479.1l7.2,26.6 M728.5,920.3l-18.8,42
	 M736.3,981.1l-26.6-18.8 M944.9,1225.1l-3.3,44.8 M1011.8,1272.7l-70.8-3.3 M1146.8,1220.7l63.1-10 M1201.1,1165.9l8.3,44.8
	 M730.8,861.6l-19.4,39.8 M728.5,920.3l-17.2-18.8 M1011.8,1272.7l71.4-1.7 M1079.9,1226.2l2.8,44.8 M905,618.7l4.4-1.1
	 M1250.8,693.4l7.8,12.2 M1012.4,1227.9l-0.5,44.8 M742.4,804.6l-19.9,37.6 M730.8,861.6l-8.3-18.8 M1201.1,1165.9l55.9-13.3
	 M1244.8,1107.8l12.2,44.8 M1118.1,1520l111.2-10 M1235.3,1484.1l-6.1,26 M1235.3,1484.1l-6.1,26 M1244.8,1107.8l47.6-15.5
	 M1278,1047.5l14.4,44.8 M1278,1047.5l38.2-17.2 M1300.1,986.7l16.1,43.7 M1300.1,986.7l28.8-18.3 M1310.6,925.8l18.3,42
	 M761.8,751.5l-19.9,34.9 M742.4,804.6l-0.5-18.3 M1310.6,925.8L1330,907 M1311.2,867.7l18.8,39.8 M886.2,1172.6l-7.2,45.4
	 M944.9,1225.1l-65.8-6.6 M776.1,1479.1l-106.2-18.8 M660.5,1423.7l9.4,37.1 M1311.2,867.7l11.1-18.8 M1302.3,810.7l19.9,37.6
	 M877.9,626.5l2.8-1.1 M1140.7,1175.3l6.1,45.4 M1079.9,1226.2l66.4-5.5 M1140.7,1175.3l6.1,45.4 M1005.2,1522.8l-112.9-5
	 M888.5,1491.2l3.9,26 M836.4,1116.7L827,1162 M886.2,1172.6l-59.2-10.5 M1302.3,810.7l2.8-18.3 M1285.2,757l19.9,35.4
	 M1178.4,630.9l-2.8-1.1 M787.8,703.4l-19.9,32.1 M761.8,751.5l6.1-16 M1005.2,1522.8l112.9-2.2 M1121.4,1493.5l-2.8,26.6
	 M948.8,1179.2l-3.9,45.4 M1012.4,1227.9l-67.5-3.3 M798.3,1058l-12.7,45.4 M836.4,1116.7l-50.9-13.3 M1235.3,1484.1l108.4-17.2
	 M1352.7,1430.9l-8.8,36.5 M1012.4,1227.9l67.5-1.7 M1077.7,1180.8l2.8,45.4 M660.5,1423.7l-99.6-26 M548.2,1349.1l12.7,48.1
	 M1051.7,583.9h-1.1 M1005.2,1496.2l0.5,26 M1140.7,1175.3l60.9-9.4 M1192.2,1120.6l8.8,45.4 M1012.9,1182l-0.5,45.9 M770.6,998.3
	l-14.9,44.8 M798.3,1058l-42.6-15.5 M974.8,585l5-0.5 M1285.2,757l-3.9-16 M1260.8,708.3l19.9,32.6 M753.5,938l-17.2,42.6
	 M770.6,998.3l-34.3-17.2 M854.1,635.9l1.1-0.5 M746.8,879.9L728,920.3 M753.5,938l-24.9-18.3 M1192.2,1120.6l52.6-12.7
	 M1233.1,1062.4l11.6,45.4 M750.7,822.3l-19.4,39.3 M746.8,879.9l-16-18.3 M548.2,1349.1l-90.2-32.6 M443.1,1256.7l14.9,59.8
	 M1233.1,1062.4l44.8-14.9 M1264.1,1003.2l13.8,44.8 M892.9,1126.6l-6.6,45.9 M948.8,1179.2l-62.5-6.6 M1202.7,642l-4.4-2.8
	 M1264.1,1003.2l36-16 M1283.5,943.5l16.6,43.2 M762.3,768.7l-19.9,36.5 M750.7,822.3l-7.8-17.7 M1352.7,1430.9l103.5-24.3
	 M1467.2,1358.5l-11.6,47.6 M1260.8,708.3l-10-14.9 M1232,663.5l18.8,29.9 M1134.7,1128.8l6.1,46.5 M1077.7,1180.8l63.1-5.5
	 M1134.7,1128.8l6.1,46.5 M1283.5,943.5l27.1-17.7 M1292.3,884.8l18.3,40.9 M1292.3,884.8l18.8-17.7 M1291.8,827.9l18.8,39.8
	 M888.5,1491.2l-112.9-12.2 M769.5,1443.1l6.6,36 M443.1,1256.7l-77.5-39.8 M846.4,1070.8l-10,45.9 M892.9,1126.6l-55.9-10
	 M1128.6,585l1.7,2.8 M782.2,718.3l-19.9,33.2 M762.3,768.7l-0.5-16.6 M952.1,1133.3l-3.3,46.5 M1012.9,1182l-64.2-2.8
	 M1291.8,827.9l10-17.2 M1281.8,773.6l19.9,37.1 M1012.9,1182l64.7-1.1 M1074.3,1134.4l2.8,46.5 M1013.5,1136l-0.5,46.5
	 M1121.4,1493.5l114-9.4 M1240.9,1447.5l-5.5,36.5 M1240.9,1447.5l-5.5,36.5 M1134.7,1128.8l57.5-8.3 M1183.3,1074.1l8.8,46.5
	 M810.4,1012.7l-12.7,44.8 M846.4,1070.8l-48.7-13.3 M1467.2,1358.5l94.1-31 M1576.2,1267.7l-14.4,59.8 M906.7,580l-2.8,4.4
	 M1281.8,773.6l2.8-16.6 M1264.7,723.3l19.9,33.8 M807.1,672.9l-19.4,30.4 M782.2,718.3l5.5-15.5 M785,954.6l-14.4,43.7
	 M810.4,1012.7l-39.8-14.9 M1183.3,1074.1l50.3-11.6 M1222.1,1017.1l11.6,45.4 M770,896.5l-16.6,42 M785,954.6l-31.5-16
	 M899.5,1080.2l-7.2,46.5 M952.1,1133.3l-59.8-6.1 M765.6,839.5l-18.8,39.8 M770,896.5l-23.2-16.6 M1005.2,1496.2l-116.2-5
	 M885.1,1455.3l3.3,36 M1264.7,723.3l-3.9-15.5 M1241.4,676.8l19.4,31 M1014.6,545.7l-0.5,5 M1008,563.4h1.1 M1222.1,1017.1
	l42.1-13.8 M1249.7,959l13.8,44.3 M1049.4,564l-3.3-0.5 M1576.2,1267.7l82.4-37.6 M1129.1,1082.9l5.5,46.5 M1074.3,1134.4l60.3-5.5
	 M1129.1,1082.9l5.5,46.5 M1005.2,1496.2l116.2-2.8 M1123.6,1458.1l-2.2,35.4 M769.5,1443.1l-109-19.9 M650,1376.2l10,47
	 M985.8,558.4l-1.7,6.1 M982.5,565l2.2-0.5 M770,785.3l-19.4,37.6 M765.6,839.5l-14.9-17.2 M1073.2,565.6l-2.8-0.5 M1068.8,558.4
	l0.6,1.7 M885.7,587.7l-4.4,6.1 M1249.7,959l33.8-15.5 M1267.4,901.5l16.1,42 M1004.6,1460.8l0.5,35.4 M1267.4,901.5l24.9-16
	 M1274.6,844.5l18.3,40.4 M956.5,1086.2l-3.9,47 M1013.5,1136l-60.9-2.8 M782.2,733.8l-19.9,34.9 M770,785.3l-7.8-16.6
	 M856.9,1024.8l-10,45.9 M899.5,1080.2l-53.1-9.4 M1013.5,1136l60.9-1.1 M1072.1,1087.3l2.8,47 M1105.9,570.6l-3.3-0.5
	 M1089.8,551.2l2.2,3.9 M1241.4,676.8l-9.4-13.3 M1212.7,635.9l18.8,27.7 M1274.6,844.5l17.7-16.6 M1272.4,790.2l19.4,37.6
	 M1014,1089l-0.5,47 M1129.1,1082.9l54.2-8.3 M1174.5,1028.2l8.8,45.9 M1240.9,1447.5l111.8-17.2 M1361.5,1383.3l-8.8,47
	 M802.1,686.2l-19.9,32.1 M782.2,733.8l-0.5-15.5 M823.2,968.4l-12.7,44.8 M856.9,1024.8l-45.9-12.2 M1272.4,790.2l9.4-16
	 M1261.9,738.8l19.9,34.9 M1112.5,556.2l0.6,1.1 M868.5,597.1l-8.3,11.6 M843.1,627l2.8-1.7 M799.9,911.4L785,954.6 M823.2,968.4
	L785,954.6 M1174.5,1028.2l47.6-11.1 M1209.9,971.7l12.2,44.8 M650,1376.2l-102.4-27.1 M535.5,1290.4l12.7,59.2 M1261.9,738.8
	l2.8-15.5 M1244.2,691.2l20.5,32.6 M906.7,1034.2l-7.2,46.5 M956.5,1086.2l-56.4-6.1 M787.2,855L770,896.5 M799.9,911.4L770,896.5
	 M827,644.2l-19.9,28.8 M802.1,686.2l5-13.3 M1202.7,626.5l-2.8-2.2 M910.6,572.8l-3.9,6.6 M903.9,580.5l2.8-1.1 M1123,1036.4
	l6.1,46.5 M1072.1,1087.3l57-5 M1123,1036.4l6.1,46.5 M1209.9,971.7l39.8-13.3 M1235.3,915.3l14.4,43.7 M783.9,800.2l-18.8,39.3
	 M787.2,855l-21.6-15.5 M1135.2,565.6l2.8,4.4 M1244.2,691.2l-2.8-13.8 M1221.5,648l19.9,28.8 M959.8,1039.8l-3.3,46.5 M1014,1089
	l-57.5-2.8 M1235.3,915.3l32.1-13.8 M1250.8,860l16.6,41.5 M885.1,1455.3l-115.6-12.2 M762.3,1396.6l7.2,47 M789.4,748.7L770,785.3
	 M783.9,800.2L770,785.3 M1014,1089l58.1-1.1 M1068.8,1040.9l2.8,47 M866.3,979.5l-9.4,45.4 M906.7,1034.2l-50.3-8.8 M1014.6,1042
	l-0.5,47 M1040.1,545.7h-8.8 M1030.6,545.7h-8.8 M1002.4,546.2l10-0.5 M1250.8,860l23.8-15.5 M1256.9,805.2l17.7,39.3
	 M1361.5,1383.3l105.7-24.9 M1479.3,1299.8l-12.2,59.2 M855.2,607.1l-12.2,16 M882.9,589.4l2.8-1.1 M802.7,701.2l-19.9,32.6
	 M789.4,748.7l-7.2-14.9 M1123,1036.4l50.9-8.3 M1165.1,982.2l8.8,45.9 M1085.4,550.7l-2.2-0.5 M1123.6,1458.1l117.3-10.5
	 M1247,1401.6l-6.1,46.5 M1247,1401.6l-6.1,46.5 M1256.9,805.2l15.5-15.5 M1253.6,753.7l18.8,36.5 M535.5,1290.4l-93-33.8
	 M835.3,924.1l-12.7,44.3 M866.3,979.5l-43.2-11.1 M1155.1,576.1l5,6.6 M1221.5,648l-8.3-12.2 M1194.4,611l18.8,25.5 M1112.5,556.2
	l-3.9-1.1 M1253.6,753.7l8.3-14.9 M1242.6,705l19.4,33.8 M822,656.9l-19.9,29.9 M802.7,701.2l-0.5-14.4 M913.3,988.3l-6.6,45.9
	 M959.8,1039.8l-53.1-6.1 M814.9,869.4l-14.9,42 M835.3,924.1l-35.4-13.3 M1165.1,982.2l44.8-10.5 M1198.3,928l11.6,44.3
	 M1116.9,990l6.1,46.5 M1068.8,1040.9l54.2-4.4 M1116.9,990l6.1,46.5 M1004.6,1460.8l-119.5-5.5 M881.2,1408.8l3.9,46.5
	 M863.5,600.5l5-3.9 M1114.7,556.8l-2.2-1.1 M1110.3,552.9l2.8,3.3 M803.8,815.1L786.6,855 M814.9,869.4L786.6,855 M1242.6,705
	l2.2-13.8 M1224.3,661.3l19.9,29.9 M1198.3,928l37.1-12.7 M1221.5,873.2l13.8,42 M1004.6,1460.8l119.5-2.8 M1126.9,1411.6l-2.8,46.5
	 M846.4,618.2l-19.4,26 M822,656.9l5-12.7 M963.1,993.3l-3.3,46.5 M1014.6,1042l-54.8-2.2 M802.1,763.1l-18.3,37.1 M803.8,815.1
	l-19.9-14.9 M1187.8,604.9l-5.5-5 M1014.6,1042l54.8-1.1 M1066.6,994.4l2.8,46.5 M1479.3,1299.8l96.8-32.1 M876.3,934.7l-10,44.8
	 M913.3,988.3l-47-8.3 M1004.1,1414.3l0.5,46.5 M1221.5,873.2l29.3-13.3 M1234.8,819.6l16.1,40.4 M1015.2,995.5l-0.5,47
	 M808.8,714.4l-19.4,34.3 M802.1,763.1l-12.7-14.4 M1224.3,661.3l-2.8-13.3 M1201.1,621.5L1221,648 M1119.2,545.1l3.9,5.5
	 M762.3,1396.6L650,1376.2 M640.6,1317.5l9.4,58.7 M1116.9,990l48.1-7.8 M1156.8,938l8.3,44.8 M1234.8,819.6l22.1-13.8
	 M1238.7,767.5l18.3,37.6 M822.6,669.6l-19.9,31 M808.8,714.4l-6.6-13.3 M848.1,881.5l-12.7,42.6 M876.3,934.7l-40.4-10.5
	 M874.1,585l-18.8,22.7 M846.4,618.2l8.3-11.1 M1238.7,767.5l14.4-13.8 M1234.2,718.9l18.8,34.9 M1035.6,530.8l-19.9-0.5
	 M1016.2,518l-1.1,12.2 M1009.1,530.8l6.6-0.5 M898.4,568.9l2.8-1.7 M1052.8,531.9h-3.3 M1043.4,531.3l-5.5-0.5 M1036.2,519.7
	l0.6,3.3 M920.5,942.4l-7.2,45.4 M963.1,993.3l-50.3-5.5 M1056.6,523.6l0.6,1.7 M1058.9,530.2l1.1,1.7 M1201.1,621.5l-7.2-11.1
	 M1175.1,587.7l18.8,22.7 M1156.8,938l41.5-10 M1186.7,884.8l11.6,43.2 M1164.5,578.3l-14.4-8.3 M1134.1,551.8l2.8,2.8 M829.8,828.4
	l-14.4,40.9 M848.1,881.5l-33.2-12.2 M1234.2,718.9l7.8-13.8 M1222.6,674l19.9,31 M1247,1401.6l114.5-18.3 M1370.9,1325.3l-8.8,58.1
	 M842,629.2L822,656.9 M822.6,669.6l-0.5-13.3 M1111.4,944.6l6.1,45.4 M1066.6,994.4l50.3-4.4 M1111.4,944.6l6.1,45.4 M966.5,535.2
	l5-1.1 M1073.2,521.9l0.6,1.1 M1076.6,528l2.8,3.9 M821,776.4l-17.2,38.7 M829.8,828.4l-25.5-13.3 M1186.7,884.8l34.3-11.1
	 M1207.1,831.7l13.8,41.5 M967.6,947.4l-3.9,45.9 M1015.2,995.5l-51.5-1.7 M1222.6,674l2.2-12.7 M1204.4,633.1l19.9,27.7
	 M955.4,532.4l-4.4,5.5 M944.3,539.6l6.6-1.7 M1015.2,995.5l51.4-1.1 M1063.3,948.5l2.8,45.9 M881.8,578.9l3.9-3.3 M820.4,727.7
	l-18.8,34.9 M821,776.4l-18.8-13.3 M1015.7,950.1l-0.5,45.4 M1105.9,541.3l-4.4-1.1 M1098.1,535.7l2.8,3.9 M885.7,891.5l-9.4,43.2
	 M920.5,942.4l-44.3-8.3 M866.3,594.4L847,618.2 M842,629.2l4.4-11.1 M1207.1,831.7l27.7-12.7 M1218.2,780.8l16.6,38.7
	 M1175.1,587.7l-10.5-9.4 M1146.8,559l4.4,4.4 M1111.4,944.6l45.4-6.6 M1147.9,894.3l8.8,43.7 M828.7,682.3l-19.4,32.1 M820.4,727.7
	l-11.6-13.3 M931,544l1.1-0.5 M1204.4,633.1l-2.8-11.6 M1181.7,597.7l19.4,23.8 M1218.2,780.8l20.5-13.3 M1221,732.2l18.3,35.4
	 M1123.6,546.8l-4.4-1.7 M860.8,839.5l-12.7,42 M885.7,891.5l-37.6-10 M640.6,1317.5l-105.1-27.7 M842.5,640.8l-19.9,28.8
	 M828.7,682.3l-6.1-12.7 M881.2,1408.8l-119-12.7 M755.7,1338.5l7.2,58.1 M1221,732.2l13.3-13.3 M1214.9,686.2l19.4,32.6
	 M927.2,898.7l-7.2,44.3 M967.6,947.4l-47-5 M892.9,565L874.1,585 M866.3,594.4l7.8-9.4 M1147.9,894.3l39.3-9.4 M1175.1,842.8
	l12.2,42 M931.6,534.6l-7.8,7.2 M913.9,551.2l2.8-1.1 M844.7,788.6l-14.9,39.8 M860.8,839.5l-31-11.1 M1105.9,900.3l5.5,44.3
	 M1063.3,948.5l47.6-3.9 M1105.9,900.3l5.5,44.3 M1029.5,518h-13.3 M1016.8,513.6l-0.5,4.4 M1012.4,518h3.9 M1214.9,686.2l7.8-12.2
	 M1202.2,644.7l19.9,29.3 M1044.5,519.1l-2.8-0.5 M1038.4,518.6l-2.8-0.5 M1034.5,514.2l1.1,3.9 M1181.7,597.7l-6.6-10
	 M1156.2,567.8l18.8,20.5 M862.4,604.3L842,629.2 M842.5,640.8l-0.5-11.6 M1126.9,1411.6l120.1-10.5 M1253.1,1343.5l-6.1,58.1
	 M1253.1,1343.5l-6.1,58.1 M981.4,520.8l7.2-0.5 M1140.7,555.7l-6.6-3.9 M1118.6,536.8l7.2,6.6 M1073.2,521.9l-5-0.5 M1063.8,521.3
	l-9.4-1.1 M1050,511.4l0.6,1.1 M1051.7,513.6l0.6,1.1 M970.9,903.7l-3.3,44.3 M1015.7,950.1l-48.1-2.2 M837.5,739.9l-16.6,36.5
	 M844.7,788.6L821,776.4 M1175.1,842.8l32.6-11.1 M1192.8,792.5l14.4,39.8 M1015.7,950.1l48.1-1.1 M1061.1,904.2l2.8,44.8
	 M984.7,513l-2.8,3.9 M961.5,524.7l4.4-1.1 M1016.2,904.8l-1.1,44.8 M1064.4,512.5l2.8,3.3 M1068.3,516.4l2.2,2.8 M1202.2,644.7
	l2.2-11.1 M1184.4,607.7l19.9,25.5 M1370.9,1325.3l108.4-25.4 M895.6,848.3l-10,42.6 M927.2,898.7l-41.5-7.2 M839.2,694l-18.8,33.8
	 M837.5,739.9l-17.2-12.2 M899.5,559.5l2.8-2.8 M1192.8,792.5l25.4-11.6 M1202.2,743.8l16.1,37.1 M966.5,519.7l-5,5.5 M957,525.8
	l4.4-1.1 M885.7,572.8l-19.4,21 M862.4,604.3l3.3-10.5 M1105.9,900.3l42.1-6.1 M1138.5,851.1l8.8,42.6 M1079.3,515.3l8.3,8.3
	 M847.5,652.5l-18.8,30.4 M839.2,694l-10.5-11.6 M1156.2,567.8l-9.4-8.3 M1129.1,542.9l17.7,16 M1004.1,1414.3l-122.8-5.5
	 M877.9,1351.3l3.3,57.5 M1202.2,743.8l18.8-11.6 M1202.7,698.4l18.3,33.8 M1184.4,607.7l-2.8-10 M1161.8,576.1l19.9,21.6
	 M873,799.1l-12.7,40.4 M895.6,848.3l-34.9-8.8 M1004.1,1414.3l122.8-2.8 M1129.1,1354l-2.8,57.5 M934.4,855.5l-7.2,42.6
	 M970.9,903.7l-43.7-5 M862.4,614.8l-19.9,26 M847.5,652.5l-5-11.1 M1202.7,698.4l12.2-12.2 M1196.1,655.8l18.8,30.4 M1118.6,536.8
	l-13.3-6.1 M1093.7,521.3l11.6,9.4 M1138.5,851.1l36-8.3 M1163.4,802.4l11.6,40.4 M1099.8,857.2l6.1,43.2 M1061.1,904.2l44.8-3.9
	 M1099.8,857.2l6.1,43.2 M1003.5,1356.8l0.5,57.5 M911.1,547.3L892.3,565 M885.7,572.8l7.2-8.3 M859.7,751.5l-14.9,37.6 M873,799.1
	l-28.8-10.5 M1196.1,655.8l6.6-11.1 M1182.2,618.2l19.9,26.6 M946.5,522.5l-14.9,12.2 M923.9,539l7.8-3.9 M1161.8,576.1l-5.5-8.3
	 M1137.4,550.1l18.8,17.7 M974.8,860l-3.9,43.7 M1016.2,904.8l-45.4-1.1 M882.9,582.2L863,604.9 M862.4,614.8v-10.5 M854.7,705.6
	l-17.2,34.9 M859.7,751.5l-22.1-11.1 M1016.2,904.8l44.8-1.1 M1058.3,860.5l2.8,43.2 M1163.4,802.4l29.3-10 M1178.9,754.3l13.8,37.6
	 M1129.1,542.9l-10.5-6.1 M1112.5,531.9l6.1,4.4 M1033.4,508.6h-15.5 M1017.9,506.4v2.2 M1001.9,509.7l16-1.1 M1049.4,510.3
	l-16.1-1.1 M1031.8,502.5l0.6,1.7 M1016.8,861.6l-0.5,43.2 M1005.2,505.3l-2.8,4.4 M995.2,510.3l6.6-1.1 M905.6,807.4l-10,40.9
	 M934.4,855.5l-38.7-7.2 M1064.4,512.5l-14.9-2.2 M1047.8,507.5l2.2,2.2 M1182.2,618.2l2.2-10.5 M1164,585l20.5,22.7 M857.5,663
	l-18.8,31 M854.7,705.6l-15.5-11.1 M989.7,508.1l-3.3,3.3 M978.6,513l7.8-1.7 M1178.9,754.3l23.8-11.1 M1185.6,708.9l16.6,34.9
	 M1079.3,515.3l-14.4-3.3 M1056.6,505.3l7.8,7.2 M1099.8,857.2l39.3-6.1 M1129.7,809.6l8.8,41.5 M937.1,527.4L920,540.7
	 M911.1,547.3l8.8-6.6 M905,555.1l-19.4,18.3 M882.9,582.2l2.8-8.8 M755.7,1338.5l-114.5-20.5 M867.4,624.8l-19.4,27.7 M857.5,663
	l-10-11.1 M962,517.5l10-3.3 M1185.6,708.9l17.2-11.1 M1185,666.9l18.3,31.5 M1137.4,550.1l-7.8-7.2 M1111.4,529.1l18.3,13.3
	 M885.7,760.9L873,799.1 M905.6,807.4l-32.6-8.3 M1091.5,519.7l-12.7-3.9 M1071.6,510.3l7.8,5 M1164,585l-2.2-8.3 M1141.8,557.3
	l19.9,18.8 M941,814l-6.6,42 M974.8,860l-40.4-3.9 M1185,666.9l11.1-11.1 M1176.7,628.1l18.8,27.7 M882.9,591.1L863,614.8
	 M867.4,624.8l-4.4-10 M971.4,509.7l-6.1,3.9 M946.5,522.5l11.6-4.4 M1129.7,809.6l33.8-7.8 M1151.8,763.7l11.6,38.7 M1093.7,815.7
	l6.1,41.5 M1058.3,860.5l40.9-3.9 M1093.7,815.7l6.1,41.5 M874.6,715.5L859.7,751 M885.7,760.9l-26-9.4 M1102.6,524.1l-11.1-4.4
	 M1084.9,514.7l7.2,4.4 M929.9,533.5l-18.8,13.8 M905,555.1l6.1-7.8 M1253.1,1343.5l117.8-18.3 M1176.7,628.1l5.5-10 M1162.3,593.8
	l19.9,24.3 M978.6,817.9l-3.3,42 M1016.8,861.6l-42-1.7 M902.8,562.3l-19.9,19.9 M882.9,591.1v-8.8 M1016.8,861.6l41.5-1.1
	 M1055.5,819l2.8,42 M1141.8,557.3l-4.4-7.2 M1118.1,535.2l18.8,14.9 M871.8,673.5l-17.2,32.1 M874.6,715.5L854.7,705 M1151.8,763.7
	l27.1-8.8 M1164.5,718.3l13.8,36 M962.6,513l-15.5,9.4 M937.1,527.4l9.4-5 M1017.4,819.6l-0.5,42 M915,768.7l-9.4,38.7 M941,814
	l-35.4-6.6 M1111.4,529.1l-8.3-5.5 M1086.5,514.7l16.1,9.4 M1162.3,593.8l1.7-8.8 M1143.5,565l19.9,19.9 M876.3,634.2L857.5,663
	 M871.8,673.5L858,663 M1031.8,502.5H1019 M1020.1,499.2l-1.1,3.3 M1005.7,502.5l13.3-0.5 M1164.5,718.3l21-9.4 M1169.5,676.3
	l16.1,32.6 M1043.9,503.1l-12.7-1.1 M1029.5,499.2l2.2,3.3 M1093.7,815.7l36-6.1 M1120.8,770.9l8.8,39.3 M1010.2,499.8l-2.8,1.7
	 M1056.6,505.3l-12.7-2.2 M1038.9,499.8l5,3.3 M925.5,539l-19.9,15.5 M902.8,562.3l2.8-7.2 M886.8,599.4l-19.4,25.5 M876.3,634.2
	l-8.8-9.4 M1000.8,500.3l-7.8,3.9 M982,507l11.6-2.2 M954.3,517.5L937.1,528 M929.9,533.5l7.8-6.1 M1169.5,676.3l14.9-9.4
	 M1166.8,637.5l18.3,29.3 M1067.7,507.5l-11.1-2.8 M1047.8,500.9l8.3,3.9 M898.4,724.4l-12.7,36.5 M915,768.7l-29.3-7.8
	 M1118.1,535.2l-7.2-6.1 M1093.7,519.1l17.7,10.5 M1143.5,565l-2.2-7.8 M1121.9,541.3l19.4,15.5 M992.5,502.5L982,507 M971.4,509.7
	L982,507 M947.7,774.2l-7.2,39.8 M978.6,817.9L941,814 M1166.8,637.5l10-9.4 M1157.3,602.7l19.4,25.5 M1078.2,510.8l-10.5-3.3
	 M1056.6,502.5l11.1,5 M902.8,570l-19.9,21 M886.8,599.4l-3.9-8.3 M1120.8,770.9l31-7.2 M1139.6,726.6l12.2,37.1 M1087.6,775.8
	l6.1,39.8 M1055.5,819l38.2-3.3 M1087.6,775.8l6.1,39.8 M889,682.3l-14.4,33.2 M898.4,724.4l-23.8-8.3 M984.2,504.8l-13.3,5
	 M962.6,513l8.8-3.9 M948.8,521.9L929.9,533 M925.5,539l4.4-6.1 M1157.3,602.7l5-8.8 M1143,572.8l19.4,21 M877.9,1351.3l-122.3-12.7
	 M1086.5,514.7l-8.3-3.9 M1063.8,505.3l13.8,5.5 M982.5,778.1l-3.9,39.8 M1017.4,819.6l-39.3-1.7 M922.8,545.7l-19.9,16.6
	 M902.8,570v-7.8 M888.5,643.1l-16.6,30.4 M889,682.3l-17.7-8.8 M1017.4,819.6l38.2-1.1 M1052.8,778.6l2.8,39.8 M1139.6,726.6
	l24.9-8.3 M1150.7,685.1l13.8,33.2 M1121.9,541.3l-3.9-6.1 M1099.2,523.6l18.8,11.6 M1017.9,779.7l-0.5,39.8 M977.5,507.5l-14.9,6.1
	 M954.3,517.5l7.8-3.9 M925.5,731.6l-10,37.1 M947.7,774.2l-32.7-6.1 M1143,572.8l1.1-7.8 M1123.6,547.9l19.9,17.2 M894,608.2
	l-18.3,26 M888.5,643.1l-12.2-8.8 M1093.7,519.1l-7.2-4.4 M1070.5,508.1l16.1,6.1 M1150.7,685.1l18.8-8.8 M1153.5,645.8l16.6,30.4
	 M1087.6,775.8l33.2-5 M1112,733.2l8.3,37.6 M1129.1,1354l123.9-11.1 M944.9,526.9l-19.4,12.7 M922.8,545.7l2.8-6.1 M906.2,577.8
	l-19.4,22.1 M894,608.2l-7.8-8.3 M1153.5,645.8l13.3-8.3 M1148.5,611l18.3,26.6 M1029.5,499.2h-9.4 M1021.2,498.7l-1.1,0.5
	 M1010.2,499.8l9.4-0.5 M1038.9,499.8l-9.4-0.5 M1026.8,498.7l2.8,0.5 M972,510.3l-17.7,6.6 M948.8,521.9l5.5-5 M1014.6,499.2
	l-3.9,0.5 M1000.8,500.3l9.4-1.1 M910.6,690.1l-12.7,34.3 M925.5,731.6l-27.1-7.2 M1047.8,500.9l-8.8-1.1 M1033.4,499.2l5.5,0.5
	 M1123.6,547.9l-1.7-6.1 M1102,528.5l19.9,13.3 M1008.5,500.3l-7.8,0.5 M992.5,502.5l8.3-1.7 M1099.2,523.6l-5.5-4.4 M1076,511.4
	l17.7,7.8 M1148.5,611l8.3-8.3 M1138,580l18.8,22.7 M1056.6,502.5l-8.3-1.7 M1039.5,500.3l8.3,1.1 M922.8,551.8L902.8,570
	 M906.2,577.8l-3.3-7.8 M954.8,737.1l-7.2,37.6 M982.5,778.1l-34.3-3.9 M1112,733.2l27.7-6.6 M1128,692.3l11.6,34.3 M1002.4,500.9
	l-10,1.1 M984.2,504.8l7.8-2.2 M1081.5,737.7l6.1,37.6 M1052.8,778.6l34.3-3.3 M1081.5,737.7l6.1,37.6 M904.5,651.4l-14.9,31
	 M910.6,690.1l-21.6-7.8 M1063.8,505.3l-7.8-2.8 M1045,501.4l11.6,1.1 M1138,580l4.4-7.2 M1122.5,554l19.9,18.3 M967.6,513.6
	l-18.8,8.3 M944.9,526.9l3.9-4.4 M997.4,502.5l-13.3,2.2 M977.5,507.5l7.2-2.8 M942.7,531.9l-19.9,13.3 M922.8,551.8v-6.1
	 M985.8,739.9l-3.3,37.6 M1017.9,779.7l-35.4-1.7 M905,616.5l-17.2,27.1 M904.5,651.4l-16-8.3 M1070.5,508.1l-6.6-2.8 M1050.6,503.1
	l13.3,2.2 M1102,528.5l-2.8-5 M1079.9,514.7l18.8,8.3 M1128,692.3l22.7-7.2 M1136.3,653.6l14.4,31.5 M1017.9,779.7l34.9-1.1
	 M1050,741l2.8,37.6 M1003.5,1356.8l-125.6-5.5 M1018.5,741.5l-0.5,38.2 M1122.5,554l1.1-6.1 M1103.7,533.5l19.9,14.4 M912.8,585
	L894,608.2 M905,616.5l-11.1-8.3 M934.9,696.2l-9.4,34.9 M954.8,737.1l-29.3-5.5 M993,504.2l-15.5,3.3 M972,510.3l5.5-3.3
	 M1136.3,653.6l17.2-7.8 M1136.9,618.7l16.6,27.7 M1076,511.4l-5.5-3.3 M1054.4,505.3l16.1,3.3 M1003.5,1356.8l125.6-2.8
	 M925.5,558.4l-19.4,19.4 M912.8,585l-6.6-7.2 M1081.5,737.7l30.4-4.4 M1103.1,698.4l8.8,34.9 M964.2,517.5l-19.4,9.4 M942.7,531.9
	l2.2-5.5 M1136.9,618.7l12.2-7.8 M1130.8,587.2L1149,611 M989.1,506.4l-17.2,3.9 M967.6,513.6l4.4-3.3 M1103.7,533.5l-1.7-5
	 M1082.7,518.6l19.4,10 M923.3,658.6l-12.7,31.5 M934.9,696.2l-23.8-6.1 M943.2,536.8l-20.5,14.9 M925.5,558.4l-2.8-6.1
	 M1130.8,587.2l7.8-7.2 M1119.2,560.6L1138,580 M1079.9,514.7l-3.9-3.9 M1058.3,507.5l18.3,3.9 M1026.8,498.7h-6.1 M1022.3,502
	l-1.7-3.3 M1014.6,499.2l6.6-0.5 M1033.4,499.2l-6.6-0.5 M1025.1,502l2.2-3.3 M961.5,701.2l-6.6,35.4 M985.8,739.9l-31-3.3
	 M1019,502l-4.4-2.8 M1008.5,500.3l6.1-1.1 M1039.5,500.3l-6.1-1.1 M1027.9,502.5l5.5-3.3 M1103.1,698.4l24.9-6.1 M1116.4,660.2
	l11.6,32.1 M1015.7,502.5l-7.8-2.2 M1002.4,500.9l6.1-1.1 M1119.2,560.6l3.3-6.1 M1102.6,538.5l19.9,15.5 M919.4,623.2l-14.9,28.2
	 M923.3,658.6l-18.8-7.2 M1045,501.4l-5.5-1.1 M1031.2,502.5l8.3-2.8 M1076,702.3l5.5,35.4 M1050,741l31.5-3.3 M1076,702.3l5.5,35.4
	 M985.8,508.6l-18.8,5 M964.2,517.5l2.8-3.9 M962.6,521.3l-19.9,11.1 M943.2,536.8l-0.5-5 M1012.9,502.5l-10.5-1.7 M997.4,502.5
	l5-1.1 M1050.6,503.1l-5.5-1.7 M1034,503.1l11.1-1.7 M922.2,591.6L905,616.5 M919.4,623.2l-13.8-6.6 M1082.7,518.6l-2.8-3.9
	 M1061.1,509.7l18.8,5.5 M1116.4,660.2l19.4-6.6 M1121.9,625.4l13.8,28.2 M1102.6,538.5l1.1-5 M1083.2,522.5l20.5,11.1 M989.7,704.5
	l-3.9,35.4 M1018.5,741.5l-32.6-1.1 M1010.2,503.6l-13.3-1.1 M993,504.2l4.4-1.7 M931,564.5L912.2,585 M922.2,591.6l-9.4-6.6
	 M1054.4,505.3l-3.9-1.7 M1036.7,504.2l13.8-1.1 M1018.5,741.5l31.5-0.5 M1047.8,705l2.8,36 M1019,705.6l-0.5,36 M1121.9,625.4
	l14.4-6.6 M1120.8,593.8l16.1,24.9 M944.9,664.1l-10,32.6 M961.5,701.2l-26.6-5 M945.4,541.8l-19.4,16 M931,564.5l-5.5-6.1
	 M1008,504.8l-14.9-0.5 M989.1,506.4l3.9-2.2 M984.2,510.8l-19.4,6.1 M962.6,521.3l1.7-3.9 M1058.3,507.5l-3.3-2.2 M1038.9,505.3
	h15.5 M1120.8,593.8l10-6.6 M1112.5,566.2l18.3,20.5 M1083.2,522.5l-0.6-3.9 M1062.7,511.9l19.9,6.6 M1076,702.3l27.1-3.9
	 M1094.3,665.8l8.8,32.6 M963.1,524.7l-19.9,12.2 M945.4,541.8l-2.2-5 M1112.5,566.2l6.6-6.1 M1099.8,544l19.4,16.6 M1005.7,505.3
	l-17.2,1.1 M985.8,508.6l2.8-2.2 M936,629.2l-12.7,29.3 M944.9,664.1l-21.6-5.5 M1061.1,509.7l-2.8-2.2 M1040.6,505.9l17.7,1.1
	 M1099.8,544l2.8-5.5 M1082.7,526.3l19.9,12.2 M983.1,513.6l-19.9,7.8 M963.1,524.7l-0.5-3.9 M1005.2,507l-18.8,1.7 M984.2,510.8
	l2.2-2.2 M933.8,597.7l-14.4,25.5 M936,629.2l-16.6-6.1 M968.1,668.5l-7.2,32.6 M989.7,704.5l-28.8-3.3 M1094.3,665.8l22.7-5.5
	 M1104.8,630.9l12.2,29.3 M1082.7,526.3l0.6-3.9 M1063.3,514.7l19.9,8.3 M1062.7,511.9l-1.7-2.2 M1042.3,507.5l18.8,2.2 M938.8,570
	l-16.6,21.6 M933.8,597.7l-11.6-6.1 M1025.1,502h-2.8 M1023.5,508.1l-1.1-6.1 M1019,502h3.3 M1027.9,502.5l-2.8-0.5 M1023.5,508.1
	l1.7-6.1 M1023.5,508.1l-4.4-6.1 M1015.7,502.5l2.8-0.5 M1069.9,669.6l6.1,32.6 M1047.8,705l28.8-2.8 M1069.9,669.6l6.1,32.6
	 M1031.2,502.5l-2.8-0.5 M1023.5,508.1l4.4-6.1 M949.9,546.8L931,564.5 M938.8,570l-7.8-5.5 M1023.5,508.1l-7.8-6.1 M1012.9,502.5
	l2.8-0.5 M1034,503.1l-2.8-0.5 M1023.5,508.1l7.7-5.5 M1104.8,630.9l17.7-6.1 M1108.1,599.4l13.8,25.5 M1023.5,508.1l-10.5-5.5
	 M1010.2,503.6l2.8-1.1 M964.8,529.1l-19.4,13.3 M949.9,546.8l-4.4-5 M1036.7,504.2l-2.8-1.1 M1023.5,508.1l10.5-5 M1004.1,508.1
	l-19.9,2.8 M983.1,513.6l1.1-2.8 M1023.5,508.1l-13.3-4.4 M1008,504.8l2.8-1.1 M1108.1,599.4l12.7-6.1 M1104.2,571.7l16.6,22.1
	 M993.6,671.3l-3.3,33.2 M1019,705.6l-29.3-1.1 M1038.9,505.3l-2.8-1.1 M1023.5,508.1l13.3-3.9 M1063.3,514.7l-0.6-2.8
	 M1042.3,508.6l19.9,3.3 M983.6,516.4l-19.9,8.3 M964.8,529.1l-1.7-3.9 M1104.2,571.7l8.3-5.5 M1094.8,548.5l18.3,18.3 M1019,705.6
	l28.8-0.5 M1044.5,671.8l2.8,33.2 M1023.5,508.1l-15.5-3.9 M1005.7,505.3l2.2-1.1 M1094.8,548.5l5-4.4 M1080.4,529.6l18.8,13.8
	 M954.8,634.2l-10,29.9 M968.1,668.5l-23.8-4.4 M1040.6,505.9l-1.7-1.1 M1023.5,508.1l15.5-3.3 M1019.6,671.8L1019,705
	 M1080.4,529.6l2.2-3.9 M1062.7,517.5l19.9,8.8 M1023.5,508.1l-17.7-2.8 M1005.2,507l1.1-1.1 M1003.5,509.2l-20.5,4.4 M983.6,516.4
	l-0.5-2.8 M1042.3,507.5l-1.7-1.1 M1023.5,508.1l17.1-2.2 M1069.9,669.6l23.8-3.9 M1084.9,635.9l8.8,30.4 M1062.7,517.5l0.6-2.8
	 M1042.8,509.7l19.9,5 M1023.5,508.1l-18.8-1.1 M1004.1,508.1l1.1-1.1 M948.2,602.7l-12.7,26.6 M954.8,634.2l-18.8-5 M1042.3,508.6
	l-0.6-1.1 M1023.5,508.1l18.8-1.1 M948.8,575l-14.9,22.7 M948.2,602.7l-14.4-5 M968.1,532.4l-18.3,14.4 M956,551.2l-6.1-4.4
	 M984.2,518.6l-19.4,10.5 M968.1,532.4l-2.8-3.9 M956,551.2l-17.2,18.3 M948.8,575l-10-5 M1023.5,508.1h-19.4 M1003.5,509.2l0.5-1.1
	 M1003.5,510.3l-19.9,6.1 M984.2,518.6l-1.1-2.2 M1042.8,509.7l-0.6-1.1 M1023.5,508.1l18.8,0.5 M1084.9,635.9l19.4-4.4
	 M1093.2,604.3l11.6,27.1 M975.3,638.1l-7.2,30.4 M993.6,671.3l-24.9-2.8 M1076.6,533.5l3.9-3.9 M1061.1,519.7l19.4,10.5
	 M1061.1,519.7l1.7-2.2 M1042.8,510.8l19.4,6.1 M1023.5,508.1l-19.9,1.1 M1003.5,510.3v-1.1 M1088.2,552.9l6.6-4.4 M1076.6,533.5
	l18.3,14.9 M1093.2,604.3l14.9-4.4 M1093.7,576.7l14.4,22.7 M1042.8,510.8v-1.1 M1023.5,508.1l19.4,1.1 M1093.7,576.7l10.5-5
	 M1088.2,552.9l16.1,18.8 M1063.8,638.6l6.1,30.4 M1044.5,671.8l25.4-2.2 M1063.8,638.6l6.1,30.4 M1023.5,508.1l-19.9,2.2
	 M1004.1,511.9l-0.5-1.1 M1029,517.5l-5.5-8.9 M1031.8,516.9l-8.3-8.3 M1034.5,516.4l-11.1-8.3 M1036.7,515.3l-13.3-7.2
	 M1038.9,514.7l-15.5-6.1 M1041.2,513.6l-17.7-5.5 M1042.3,512.5l-18.8-3.9 M1042.8,510.8l-19.4-2.8 M1004.1,511.9l19.4-3.9
	 M1005.2,513l18.8-5 M1006.3,514.2l17.2-6.1 M1008.5,514.7l14.9-6.6 M1010.7,515.8l12.7-7.8 M1013.5,516.9l10-8.3 M1016.2,517.5
	l7.2-8.9 M1019.6,517.5l3.9-9.4 M1022.9,517.5l0.5-9.4 M1025.7,517.5l-2.2-9.4 M1029,517.5l-5.5-8.9 M1004.1,511.9l-19.4,6.6
	 M986.4,521.3l-2.2-2.8 M1042.3,512.5l1.1-1.1 M986.4,521.3l-18.8,11.1 M973.1,535.7l-5-3.3 M1058.9,521.9l2.2-2.2 M1042.3,512.5
	l18.8,7.2 M997.4,640.3l-3.9,31 M1019.6,671.8l-26-1.1 M1005.2,513l-1.1-1.1 M964.2,607.1l-9.4,27.1 M975.3,638.1l-20.5-3.9
	 M1041.2,513.6l1.1-1.1 M1019.6,671.8l24.9-0.5 M1042.3,640.3l2.8,31 M973.1,535.7l-17.2,15.5 M963.7,555.7l-7.8-3.9 M1071.6,536.8
	l5-3.3 M1058.9,521.9l17.7,11.6 M1020.1,640.8l-0.5,31 M1006.3,514.2l-1.7-1.1 M986.4,521.3l18.8-8.3 M963.7,555.7L948.8,575
	 M960.9,579.4l-12.2-4.4 M960.9,579.4l-12.7,23.2 M964.2,607.1l-16-4.4 M1063.8,638.6l21-3.3 M1076.6,608.2l8.3,27.7 M989.1,523.6
	l-2.8-2.2 M1038.9,514.7l2.2-1.1 M1058.9,521.9l-18.3-8.3 M1079.3,556.2l8.8-3.3 M1071.6,536.8l16.6,16 M1055.5,524.1l3.3-2.2
	 M1008.5,514.7l-2.2-1.1 M989.1,523.6l17.2-9.4 M1036.7,515.3l2.2-1.1 M1055.5,524.1l-16.6-9.4 M1081.5,580.5l12.2-3.9
	 M1079.3,556.2l13.8,20.5 M1076.6,608.2l16.6-3.9 M1081.5,580.5l11.6,23.2 M989.1,523.6l-16.6,12.2 M978.6,539l-6.1-3.3
	 M1010.7,515.8l-2.8-1.1 M993.6,525.2l14.9-10.5 M1034.5,516.4l2.8-1.1 M1051.1,525.8l-13.8-10.5 M993.6,525.2l-3.9-1.7
	 M982.5,610.4l-7.2,27.7 M997.4,640.3l-22.1-2.2 M1065.5,539.6l6.1-3.3 M1055.5,524.1l16.1,12.7 M1013.5,516.9l-2.8-1.1
	 M998.5,526.9l12.7-11.1 M1051.1,525.8l4.4-1.7 M1031.8,516.9l2.8-0.5 M1046.1,527.4l-11.6-11.1 M978.6,539l-14.9,16.6 M973.1,558.4
	l-9.4-3.3 M1058.3,611l6.1,27.7 M1042.3,640.3l22.1-1.7 M1058.3,611l6.1,27.7 M1016.2,517.5l-2.8-0.5 M1004.1,528.5l9.4-11.6
	 M1029,517.5l2.8-0.5 M1040.6,529.1l-8.3-12.2 M1019.6,517.5l-2.8-0.5 M1009.6,529.1l7.2-12.2 M974.2,582.8l-10,24.3 M982.5,610.4
	l-18.3-3.3 M1025.7,517.5l3.3-0.5 M1034.5,529.6l-5.5-12.7 M1034.5,529.6l-5.5-12.7 M973.1,558.4l-12.7,20.5 M974.2,582.8l-13.3-3.9
	 M998.5,526.9l-5-1.7 M978.6,539l14.4-13.3 M1022.9,517.5h-3.3 M1015.7,530.2l3.3-12.7 M1069.4,560.1l10-3.9 M1065.5,539.6
	l13.8,16.6 M1022.9,517.5h2.8 M1028.4,530.2l-2.8-12.7 M1022.3,530.8l0.5-13.3 M985.8,541.3l-7.2-2.8 M1000.8,612.1l-3.3,27.7
	 M1020.1,640.8l-22.7-1.1 M1046.1,527.4l5-1.7 M1065.5,539.6l-14.4-13.8 M1020.1,640.8l22.1-0.5 M1038.9,612.6l2.8,27.7 M1058.3,611
	l18.8-2.8 M1067.7,583.9l8.8,24.3 M1067.7,583.9l13.8-3.3 M1069.4,560.1l12.2,20.5 M1058.3,541.8l7.8-2.2 M1020.7,613.2l-0.5,27.7
	 M1004.1,528.5l-5.5-1.1 M985.8,541.3l12.7-14.4 M1040.6,529.1l5.5-1.1 M1058.3,541.8l-12.2-14.4 M985.8,541.3l-12.7,17.2
	 M984.2,561.7l-10.5-3.3 M989.1,585.5l-6.6,24.9 M1000.8,612.1l-18.8-1.7 M994.1,543.5l-7.8-1.7 M1009.6,529.1l-5.5-1.1
	 M994.1,543.5l10-14.9 M1058.3,562.3l11.1-2.2 M1058.3,541.8l11.6,18.3 M984.2,561.7l-9.4,21 M989.1,585.5l-14.4-2.8 M1034.5,529.6
	l6.1-1.1 M1049.4,544l-8.8-15.5 M1052.8,586.1l5.5,24.9 M1038.9,612.6l18.8-1.7 M1052.8,586.1l5.5,24.9 M1049.4,544l8.3-2.2
	 M1015.7,530.2l-6.6-1.1 M1003,545.1l6.6-15.5 M1052.8,586.1l14.9-2.2 M1058.3,562.3l8.8,21.6 M1028.4,530.2l6.1-0.5 M1040.6,545.7
	l-6.1-15.5 M1040.6,545.7l-6.1-15.5 M1022.3,530.8l-6.6-0.5 M1011.8,546.2l3.9-15.5 M1004.6,587.2l-3.3,25.5 M1020.7,613.2
	l-19.4-1.1 M1022.3,530.8l6.1-0.5 M1031.2,546.2l-2.8-16 M1003,545.1l-8.8-1.7 M1021.8,546.2l0.5-15.5 M984.2,561.7l10-18.3
	 M995.8,563.4l-12.2-1.7 M1020.7,613.2l18.8-0.5 M1036.7,587.2l2.8,25.5 M1040.6,545.7l8.8-1.1 M1058.3,562.3l-8.8-18.3
	 M1021.2,587.7l-0.5,25.5 M1046.7,564.5l12.2-2.2 M995.8,563.4l-7.2,22.1 M1004.6,587.2l-15.5-1.1 M1046.7,564.5l6.1,21.6
	 M1036.7,587.2l16.1-1.1 M1046.7,564.5l6.1,21.6 M1011.8,546.2l-8.8-1.1 M995.8,563.4l7.2-18.3 M1031.2,546.2l9.4-1.1 M1046.7,564.5
	l-6.1-18.8 M1046.7,564.5l-6.1-18.8 M1008.5,565l-12.7-1.1 M1021.8,546.2l-10-0.5 M1008.5,565l3.3-18.8 M1008.5,565l-3.9,22.1
	 M1021.2,587.7l-16.6-1.1 M1034,565.6l12.7-1.1 M1021.8,546.2h8.9 M1034,565.6l-2.8-18.8 M1021.2,587.7l15.5-0.5 M1034,565.6
	l2.8,22.1 M1021.2,565.6l0.5-19.4 M1021.2,565.6l-0.5,22.1 M1021.2,565.6l-13.3-1.1 M1021.2,565.6l12.7-0.5"/>
</svg>
