<?xml version="1.0" encoding="utf-8"?>
<!-- Generator: Adobe Illustrator 26.0.2, SVG Export Plug-In . SVG Version: 6.00 Build 0)  -->
<svg version="1.1" id="Слой_1" xmlns="http://www.w3.org/2000/svg" xmlns:xlink="http://www.w3.org/1999/xlink" x="0px" y="0px"
	 viewBox="0 0 534.2 137.1" style="enable-background:new 0 0 534.2 137.1;" xml:space="preserve">
<style type="text/css">
	.st0{fill:#FFFFFF;}
	.st1{display:none;}
	.st2{display:inline;}
</style>
<g>
	<path class="st0" d="M21.9,0c6.4,0,11.6,1.9,15.7,5.8c4,3.9,6.2,9.3,6,14.9v95.8c0.2,5.6-2,11-6,14.9c-4,3.9-9.3,5.8-15.7,5.8
		c-6.5,0-11.8-1.9-15.8-5.8c-4-3.9-6.2-9.3-6-14.9V20.6c-0.2-5.6,2-11,6-14.9C10.1,1.9,15.4,0,21.9,0z M25.8,20.6
		c0-2.8-1.3-4.3-3.9-4.3c-2.7,0-4.1,1.4-4.1,4.3v95.8c0,2.9,1.4,4.3,4.1,4.3c2.6,0,3.9-1.4,3.9-4.3V20.6z"/>
	<path class="st0" d="M87.4,3.3v13.6c0,0.8-0.7,1.5-1.5,1.5h-8.2c-0.8,0-1.5,0.7-1.5,1.5v113.9c0,0.8-0.7,1.5-1.5,1.5H59.9
		c-0.8,0-1.5-0.7-1.5-1.5V19.8c0-0.8-0.7-1.5-1.5-1.5h-8.2c-0.8,0-1.5-0.7-1.5-1.5V3.3c0-0.8,0.7-1.5,1.5-1.5h37.2
		C86.7,1.8,87.4,2.5,87.4,3.3z"/>
	<path class="st0" d="M119.3,1.8h14.8c0.8,0,1.5,0.7,1.5,1.5v130.5c0,0.8-0.7,1.5-1.5,1.5h-14.8c-0.8,0-1.5-0.7-1.5-1.5V77.3
		c0-0.8-0.7-1.5-1.5-1.5h-4.8c-0.8,0-1.5,0.7-1.5,1.5v56.4c0,0.8-0.7,1.5-1.5,1.5H93.7c-0.8,0-1.5-0.7-1.5-1.5V3.3
		c0-0.8,0.7-1.5,1.5-1.5h14.8c0.8,0,1.5,0.7,1.5,1.5v53.8c0,0.8,0.7,1.5,1.5,1.5h4.8c0.8,0,1.5-0.7,1.5-1.5V3.3
		C117.8,2.4,118.5,1.8,119.3,1.8z"/>
	<path class="st0" d="M161.7,118.7h14.1c0.8,0,1.5,0.7,1.5,1.5v13.5c0,0.8-0.7,1.5-1.5,1.5h-31.9c-0.8,0-1.5-0.7-1.5-1.5V3.3
		c0-0.8,0.7-1.5,1.5-1.5h31.9c0.8,0,1.5,0.7,1.5,1.5v13.6c0,0.8-0.7,1.5-1.5,1.5h-14.1c-0.8,0-1.5,0.7-1.5,1.5v36.3
		c0,0.8,0.7,1.5,1.5,1.5h9.6c0.8,0,1.5,0.7,1.5,1.5v13.4c0,0.8-0.7,1.5-1.5,1.5h-9.6c-0.8,0-1.5,0.7-1.5,1.5v41.7
		C160.2,118.1,160.9,118.7,161.7,118.7z"/>
	<path class="st0" d="M229.1,135.3h-15.6c-0.7,0-1.4-0.5-1.5-1.3l-7.3-52.5h-2.1c-0.8,0-1.5,0.7-1.5,1.5v50.8c0,0.8-0.7,1.5-1.5,1.5
		h-14.8c-0.8,0-1.5-0.7-1.5-1.5V3.3c0-0.8,0.7-1.5,1.5-1.5h18.6c7.6,0,13.5,2.1,17.6,6.3c4.2,4.2,6.2,10.2,6.2,18.1v31.1
		c0,7.1-1.8,12.7-5.4,16.9c-0.3,0.3-0.4,0.8-0.4,1.2l9.1,58.1c0.1,0.8-0.4,1.6-1.2,1.7C229.3,135.3,229.2,135.3,229.1,135.3z
		 M201.1,19.8v43.8c0,0.8,0.7,1.5,1.5,1.5h1c2.2,0,3.8-0.5,4.5-1.6s1.2-3.2,1.2-6.4V26.5c0-3.3-0.4-5.5-1.2-6.6s-2.3-1.6-4.5-1.6h-1
		C201.8,18.4,201.1,19,201.1,19.8L201.1,19.8z"/>
	<path class="st0" d="M273,42.2h-14.8c-0.8,0-1.5-0.7-1.5-1.5V19.4c0-1.9-0.9-2.9-2.7-2.9s-2.7,1-2.7,2.9v19.1
		c-0.1,3.3,0.5,6.6,1.8,9.7c1.2,2.4,4,6.3,8.4,11.5c5.9,7,9.6,12.5,11.1,16.6s2.2,9.3,2.2,15.6v22.8c0,7-1.8,12.5-5.3,16.5
		c-3.6,4-8.7,6-15.5,6c-6.8,0-11.9-2-15.4-5.9s-5.3-9.4-5.3-16.6V95.1c0-0.8,0.7-1.5,1.5-1.5h14.6c0.8,0,1.5,0.7,1.5,1.5v22
		c0,2.3,1,3.4,3,3.4s3.2-1.1,3.2-3.4V93.8c0-4.5-0.5-7.9-1.4-10.2c-1-2.3-3.7-6-8.2-11.2c-5.7-6.8-9.5-12.4-11.3-16.8
		c-1.9-4.7-2.8-9.7-2.8-14.7V21.7c0-6.7,1.9-11.9,5.6-15.9C242.9,2,248,0,254.4,0c6.2,0,11,2,14.6,5.9s5.4,9.2,5.4,16v18.8
		C274.4,41.5,273.8,42.1,273,42.2z"/>
	<path class="st0" d="M303,0c6.4,0,11.6,1.9,15.7,5.8c4,3.9,6.2,9.3,6,14.9V54c0,0.8-0.7,1.5-1.5,1.5h-14.8c-0.8,0-1.5-0.7-1.5-1.5
		V20.6c0-2.8-1.3-4.3-3.9-4.3c-2.7,0-4.1,1.4-4.1,4.3v95.8c0,2.9,1.4,4.3,4.1,4.3c2.6,0,3.9-1.4,3.9-4.3V80.2c0-0.8,0.7-1.5,1.5-1.5
		h14.8c0.8,0,1.5,0.7,1.5,1.5v36.2c0.2,5.6-2,11-6,14.9c-4,3.9-9.3,5.8-15.7,5.8c-6.5,0-11.8-1.9-15.8-5.8c-4-3.9-6.2-9.3-6-14.9
		V20.6c-0.2-5.6,2-11,6-14.9C291.2,1.9,296.4,0,303,0z"/>
	<path class="st0" d="M349.2,3.3v130.5c0,0.8-0.7,1.5-1.5,1.5h-14.8c-0.8,0-1.5-0.7-1.5-1.5V3.3c0-0.8,0.7-1.5,1.5-1.5h14.8
		C348.6,1.8,349.2,2.5,349.2,3.3z"/>
	<path class="st0" d="M375.5,118.7h14.1c0.8,0,1.5,0.7,1.5,1.5v13.5c0,0.8-0.7,1.5-1.5,1.5h-31.9c-0.8,0-1.5-0.7-1.5-1.5V3.3
		c0-0.8,0.7-1.5,1.5-1.5h31.9c0.8,0,1.5,0.7,1.5,1.5v13.6c0,0.8-0.7,1.5-1.5,1.5h-14.1c-0.8,0-1.5,0.7-1.5,1.5v36.3
		c0,0.8,0.7,1.5,1.5,1.5h9.6c0.8,0,1.5,0.7,1.5,1.5v13.4c0,0.8-0.7,1.5-1.5,1.5h-9.6c-0.8,0-1.5,0.7-1.5,1.5v41.7
		C374,118.1,374.6,118.7,375.5,118.7z"/>
	<path class="st0" d="M428.5,1.8h12.1c0.8,0,1.5,0.7,1.5,1.5v130.5c0,0.8-0.7,1.5-1.5,1.5h-11.3c-0.7,0-1.3-0.5-1.5-1.2l-13.6-62.9
		c-0.1-0.6-0.6-1-1.1-0.9c-0.6,0.1-1,0.6-0.9,1.1l0,0v62.3c0,0.8-0.7,1.5-1.5,1.5h-12.1c-0.8,0-1.5-0.7-1.5-1.5V3.3
		c0-0.8,0.7-1.5,1.5-1.5h11.5c0.7,0,1.3,0.5,1.5,1.2L425,65.3c0.1,0.6,0.6,1,1.1,0.9c0.6-0.1,1-0.6,0.9-1.1V3.3
		C427,2.4,427.7,1.8,428.5,1.8C428.5,1.8,428.5,1.8,428.5,1.8z"/>
	<path class="st0" d="M470.8,0c6.4,0,11.6,1.9,15.7,5.8c4,3.9,6.2,9.3,6.1,14.9V54c0,0.8-0.7,1.5-1.5,1.5c0,0,0,0,0,0h-14.8
		c-0.8,0-1.5-0.7-1.5-1.5V20.6c0-2.8-1.3-4.3-3.9-4.3c-2.7,0-4.1,1.4-4.1,4.3v95.8c0,2.9,1.4,4.3,4.1,4.3c2.6,0,3.9-1.4,3.9-4.3
		V80.2c0-0.8,0.7-1.5,1.5-1.5H491c0.8,0,1.5,0.7,1.5,1.5v36.2c0.2,5.6-2,11-6.1,14.9c-4,3.9-9.2,5.8-15.7,5.8
		c-6.5,0-11.8-1.9-15.8-5.8c-4-3.9-6.2-9.3-6-14.9V20.6c-0.2-5.6,2-11,6-14.9C459,1.9,464.3,0,470.8,0z"/>
	<path class="st0" d="M518.6,118.7h14.1c0.8,0,1.5,0.7,1.5,1.5v13.5c0,0.8-0.7,1.5-1.5,1.5h-31.9c-0.8,0-1.5-0.7-1.5-1.5V3.3
		c0-0.8,0.7-1.5,1.5-1.5h31.9c0.8,0,1.5,0.7,1.5,1.5v13.6c0,0.8-0.7,1.5-1.5,1.5h-14.1c-0.8,0-1.5,0.7-1.5,1.5v36.3
		c0,0.8,0.7,1.5,1.5,1.5h9.6c0.8,0,1.5,0.7,1.5,1.5v13.4c0,0.8-0.7,1.5-1.5,1.5h-9.6c-0.8,0-1.5,0.7-1.5,1.5v41.7
		C517.1,118.1,517.8,118.7,518.6,118.7z"/>
</g>
<g class="st1">
	<g class="st2">
		<path class="st0" d="M94.9,12c4.4,0,6.8,1.6,7.5,4.8c0.7,3.2-0.7,7.7-3.8,12.3L47.3,108c-2.8,4.6-7.8,9.1-14,12.2
			c-6.2,3.2-12.6,4.8-19.1,4.8c-6.6,0-10.8-1.6-12.4-4.8c-1.6-3.2-0.2-7.6,3.5-12.2l61.5-78.9c3.4-4.6,8.4-9.1,13.7-12.3
			C85.7,13.6,90.5,12,94.9,12z M85.6,29.1c1.6-2.3,1.5-3.5-0.3-3.5c-2,0-3.8,1.2-5.5,3.5L22.5,108c-1.7,2.4-1.2,3.5,1.4,3.5
			c2.5,0,4.6-1.2,6.3-3.5L85.6,29.1z"/>
		<path class="st0" d="M138,14.7l-5.8,11.2c-0.4,0.7-1.1,1.2-1.7,1.2h-5.9c-0.6,0-1.4,0.6-1.8,1.2l-51.9,93.9
			c-0.4,0.7-1.4,1.2-2.2,1.2H53.7c-0.8,0-1.2-0.6-0.8-1.2l56.9-93.9c0.4-0.7,0.3-1.2-0.3-1.2h-5.9c-0.6,0-0.7-0.6-0.3-1.2l7.1-11.2
			c0.4-0.7,1.2-1.2,1.8-1.2h25.5C138.2,13.5,138.4,14.1,138,14.7z"/>
		<path class="st0" d="M160.5,13.5h10.1c0.6,0,0.8,0.6,0.6,1.2l-40.4,107.5c-0.3,0.7-1.1,1.2-2,1.2h-14.9c-0.8,0-1.3-0.6-1-1.2
			l20-46.5c0.3-0.7-0.1-1.2-0.8-1.2h-4.2c-0.7,0-1.5,0.6-1.9,1.2l-21,46.5c-0.3,0.7-1.2,1.2-2.1,1.2h-15c-0.8,0-1.2-0.6-0.9-1.2
			l54.3-107.5c0.3-0.7,1.1-1.2,1.6-1.2h10.1c0.6,0,0.8,0.6,0.5,1.2l-20,44.3c-0.3,0.7,0,1.2,0.7,1.2h4c0.7,0,1.5-0.6,1.8-1.2
			l19-44.3C159.2,14.1,159.9,13.5,160.5,13.5z"/>
		<path class="st0" d="M160.7,109.9h13.7c0.8,0,1.3,0.6,1.2,1.2l-2.8,11.2c-0.2,0.7-1,1.2-1.8,1.2h-32.2c-0.8,0-1.3-0.6-1.1-1.2
			l38.3-107.5c0.2-0.7,0.9-1.2,1.5-1.2h21.8c0.6,0,0.9,0.6,0.7,1.2L197,25.9c-0.2,0.7-0.8,1.2-1.4,1.2h-10.2c-0.6,0-1.3,0.6-1.5,1.2
			l-9.1,29.9c-0.2,0.7,0.2,1.2,0.9,1.2h7.9c0.7,0,1.1,0.6,0.9,1.2l-2.9,11c-0.2,0.7-0.9,1.2-1.6,1.2h-8.3c-0.7,0-1.5,0.6-1.7,1.2
			l-10.4,34.3C159.4,109.3,159.9,109.9,160.7,109.9z"/>
		<path class="st0" d="M224.7,123.5h-15.8c-0.7,0-1.3-0.5-1.3-1.1l0-43.2h-1.8c-0.7,0-1.4,0.6-1.5,1.2l-7.6,41.8
			c-0.1,0.7-0.9,1.2-1.7,1.2h-15c-0.8,0-1.4-0.6-1.2-1.2L204,14.7c0.2-0.7,0.7-1.2,1.3-1.2H218c5.2,0,9,1.7,11.4,5.2
			c2.5,3.5,3.5,8.4,2.8,14.9l-2.7,25.7c-0.6,5.8-2.6,10.5-6.1,13.9c-0.3,0.3-0.4,0.6-0.4,1l3.3,47.9c0.1,0.7-0.5,1.3-1.4,1.4
			C224.9,123.5,224.8,123.5,224.7,123.5z M213.7,28.4l-6.5,36.1c-0.1,0.7,0.3,1.2,1,1.2h0.8c1.9,0,3.2-0.4,4-1.3
			c0.8-0.9,1.4-2.6,1.8-5.3l4-25.2c0.4-2.7,0.4-4.5,0-5.4c-0.4-0.9-1.4-1.3-3.1-1.3H215C214.4,27.2,213.8,27.7,213.7,28.4
			L213.7,28.4z"/>
		<path class="st0" d="M266.6,46.8H255c-0.6,0-1.2-0.6-1.2-1.2l0.3-17.5c0-1.6-0.6-2.3-1.9-2.3c-1.3,0-1.9,0.8-2,2.3l-0.5,15.7
			c-0.2,2.7,0.2,5.5,1.2,8c0.9,2,3.1,5.2,6.7,9.5c5,5.8,8.2,10.3,9.6,13.7c1.4,3.4,2.2,7.7,2.4,12.8l0.7,18.8
			c0.2,5.8-1.4,10.3-4.8,13.6c-3.5,3.3-8.7,4.9-15.6,4.9c-6.9,0-12-1.6-15.3-4.8c-3.2-3.2-4.6-7.8-4.1-13.6l1.4-16.1
			c0.1-0.7,0.7-1.2,1.5-1.2h13.3c0.8,0,1.3,0.6,1.3,1.2l-0.6,18.1c-0.1,1.9,0.9,2.8,2.8,2.8s3.1-0.9,3.2-2.8l0.3-19.2
			c0.1-3.7-0.3-6.5-1.1-8.4c-0.8-1.9-3.1-4.9-6.8-9.2c-4.5-5.6-7.4-10.2-8.6-13.9c-1.2-3.8-1.6-8-1.2-12.1l1.3-15.8
			c0.5-5.5,2.2-9.8,5-13.1c2.8-3.2,6.3-4.8,10.7-4.8c4.2,0,7.5,1.6,10,4.8c2.6,3.2,4,7.6,4.2,13.2l0.6,15.5
			C267.7,46.2,267.2,46.8,266.6,46.8z"/>
		<path class="st0" d="M285.9,12c4.4,0,8.2,1.6,11.4,4.8c3.4,3.2,5.8,7.6,6.5,12.3l5.1,27.5c0.1,0.7-0.3,1.2-1,1.2h-12.1
			c-0.7,0-1.3-0.6-1.4-1.2l-3.7-27.5c-0.3-2.3-1.4-3.5-3.3-3.5c-2,0-2.8,1.2-2.6,3.5l8.6,78.9c0.3,2.4,1.7,3.5,4.4,3.5
			c2.5,0,3.7-1.2,3.4-3.5l-4-29.9c-0.1-0.7,0.4-1.2,1.1-1.2h12.9c0.7,0,1.4,0.6,1.5,1.2l5.6,29.9c1,4.6-0.3,9.1-3.8,12.2
			c-3.5,3.2-8.6,4.8-15.1,4.8c-6.6,0-12.1-1.6-16.4-4.8c-4.2-3.2-6.7-7.6-6.7-12.2L272,29.1c-0.4-4.6,0.9-9.1,3.5-12.3
			C278,13.6,281.4,12,285.9,12z"/>
		<path class="st0" d="M318,14.7l27.8,107.5c0.2,0.7-0.4,1.2-1.2,1.2h-15c-0.8,0-1.6-0.6-1.8-1.2L305.7,14.7
			c-0.1-0.7,0.2-1.2,0.8-1.2h10.1C317.2,13.5,317.8,14.1,318,14.7z"/>
		<path class="st0" d="M368.1,109.9h13.7c0.8,0,1.7,0.6,1.9,1.2l4.3,11.2c0.3,0.7-0.2,1.2-1,1.2h-32.2c-0.8,0-1.7-0.6-1.9-1.2
			L322.8,14.7c-0.2-0.7,0.1-1.2,0.7-1.2h21.8c0.6,0,1.2,0.6,1.5,1.2l4.3,11.2c0.3,0.7,0,1.2-0.6,1.2h-10.2c-0.6,0-0.9,0.6-0.7,1.2
			l10,29.9c0.2,0.7,1,1.2,1.6,1.2h7.9c0.7,0,1.4,0.6,1.7,1.2l4.1,11c0.3,0.7-0.1,1.2-0.8,1.2h-8.3c-0.7,0-1.1,0.6-0.9,1.2l11.4,34.3
			C366.4,109.3,367.3,109.9,368.1,109.9z"/>
		<path class="st0" d="M371.9,13.5h8.3c0.6,0,1.3,0.6,1.7,1.2l57.5,107.5c0.4,0.7,0,1.2-0.9,1.2h-11.5c-0.7,0-1.5-0.4-2-1L388,70.7
			c-0.3-0.5-0.8-0.8-1.3-0.7c-0.4,0-0.6,0.5-0.4,0.9l0,0l22.9,51.4c0.3,0.7-0.1,1.2-1,1.2H396c-0.8,0-1.7-0.6-2-1.2L350.9,14.7
			c-0.3-0.7,0-1.2,0.5-1.2h7.9c0.5,0,1.1,0.4,1.5,1l34,51.3c0.3,0.5,0.8,0.8,1.3,0.7c0.4,0,0.6-0.5,0.3-0.9l-24.9-50.9
			C371.1,14.1,371.3,13.5,371.9,13.5C371.9,13.5,371.9,13.5,371.9,13.5z"/>
		<path class="st0" d="M399.9,12c4.4,0,8.9,1.6,13.8,4.8c5,3.2,9.6,7.6,12.6,12.3l18.8,27.5c0.5,0.7,0.3,1.3-0.4,1.3c0,0,0,0,0,0
			h-12.1c-0.7,0-1.6-0.6-2-1.2l-17.4-27.5c-1.5-2.3-3.2-3.5-5-3.5c-2,0-2.2,1.2-0.8,3.5l48,78.9c1.4,2.4,3.5,3.5,6.1,3.5
			c2.5,0,3.1-1.2,1.6-3.5l-18.9-29.9c-0.4-0.7-0.2-1.2,0.5-1.2h12.9c0.7,0,1.7,0.6,2.2,1.2l20.4,29.9c3.3,4.6,4.2,9.1,2.3,12.2
			c-1.9,3.2-6.2,4.8-12.7,4.8c-6.6,0-12.9-1.6-18.8-4.8c-5.8-3.2-10.5-7.6-12.8-12.2l-43.8-78.9c-2.7-4.6-3.6-9.1-2.6-12.3
			C392.8,13.6,395.4,12,399.9,12z"/>
		<path class="st0" d="M506.9,109.9h13.7c0.8,0,1.9,0.6,2.5,1.2l9,11.2c0.5,0.7,0.3,1.2-0.5,1.2h-32.2c-0.8,0-1.9-0.6-2.4-1.2
			L421.1,14.7c-0.5-0.7-0.4-1.2,0.2-1.2h21.8c0.6,0,1.5,0.6,2,1.2l9,11.2c0.5,0.7,0.5,1.2-0.1,1.2h-10.2c-0.6,0-0.7,0.6-0.1,1.2
			l22.7,29.9c0.5,0.7,1.5,1.2,2.2,1.2h7.9c0.7,0,1.7,0.6,2.2,1.2l8.8,11c0.5,0.7,0.4,1.2-0.3,1.2h-8.3c-0.7,0-0.9,0.6-0.4,1.2
			l26,34.3C505,109.3,506.1,109.9,506.9,109.9z"/>
	</g>
</g>
</svg>
