<?xml version="1.0" encoding="utf-8"?>
<!-- Generator: Adobe Illustrator 26.0.2, SVG Export Plug-In . SVG Version: 6.00 Build 0)  -->
<svg version="1.1" id="Слой_1" xmlns="http://www.w3.org/2000/svg" xmlns:xlink="http://www.w3.org/1999/xlink" x="0px" y="0px"
	 viewBox="0 0 814 173.2" style="enable-background:new 0 0 814 173.2;" xml:space="preserve">
<style type="text/css">
	.st0{fill:#FFFFFF;}
</style>
<path class="st0" d="M476.4,5.2V168c0,2.9-2.3,5.2-5.2,5.2h0h-61.8c-2.9,0-5.2-2.3-5.2-5.2v0V91.8c0-2.9-2.3-5.2-5.2-5.2
	c0,0,0,0,0,0h-18.5c-2.9,0-5.2,2.3-5.2,5.2v0V168c0,2.9-2.3,5.2-5.2,5.2h0h-61.8c-2.9,0-5.2-2.3-5.2-5.2c0,0,0,0,0,0V5.2
	c0-2.9,2.3-5.2,5.2-5.2c0,0,0,0,0,0h162.8C474.1,0,476.4,2.3,476.4,5.2C476.4,5.2,476.4,5.2,476.4,5.2z M101.1,5.2V168
	c0,2.9,2.3,5.2,5.2,5.2h0H168c2.9,0,5.2-2.3,5.2-5.2c0,0,0,0,0,0V91.8c0-2.9,2.3-5.2,5.2-5.2c0,0,0,0,0,0h18.5
	c2.9,0,5.2,2.3,5.2,5.2c0,0,0,0,0,0V168c0,2.9,2.3,5.2,5.2,5.2c0,0,0,0,0,0h61.8c2.9,0,5.2-2.3,5.2-5.2v0V5.2c0-2.9-2.3-5.2-5.2-5.2
	l0,0H106.3C103.4,0,101.1,2.3,101.1,5.2z M68.7,0H3.5C1.6,0,0,1.6,0,3.5v166.3c0,1.9,1.6,3.5,3.5,3.5h65.2c1.9,0,3.5-1.6,3.5-3.5
	c0,0,0,0,0,0V3.5C72.2,1.6,70.6,0,68.7,0L68.7,0L68.7,0z"/>
<g>
	<path class="st0" d="M601.1,116.1l-1.6,17h-50.3v-95h19.1v78H601.1z"/>
	<path class="st0" d="M670.6,133h-17.3v-7.2c-2.4,3.3-5.1,5.7-7.9,7.1c-2.8,1.4-6.1,2.2-9.9,2.2c-7.9,0-14.5-2.8-19.8-8.5
		c-5.3-5.7-7.9-12.8-7.9-21.3c0-8.5,2.7-15.6,8.2-21.1s12.3-8.4,20.5-8.4c3.3,0,6.2,0.6,8.8,1.8c2.5,1.2,5.2,3.4,8.1,6.4v-6.9h17.3
		V133z M653.5,111.5V99.8c-1-2.8-2.8-5.1-5.3-6.8c-2.5-1.7-5.3-2.6-8.5-2.6c-4.2,0-7.6,1.4-10.3,4.2c-2.7,2.8-4,6.4-4,10.8
		c0,4.5,1.3,8.2,4,11c2.7,2.9,6,4.3,10.1,4.3c3.1,0,5.9-0.8,8.4-2.5C650.5,116.6,652.3,114.4,653.5,111.5z"/>
	<path class="st0" d="M747.8,105.4c0,8.4-2.6,15.4-7.9,21.1c-5.3,5.7-11.8,8.6-19.5,8.6c-3.8,0-7.1-0.7-10-2.2
		c-2.9-1.5-5.7-4-8.6-7.4v7.5h-17.3v-95h17.3v46.1c2.7-3,5.4-5.2,8.2-6.6c2.8-1.4,6-2.1,9.4-2.1c8.1,0,14.8,2.9,20.2,8.6
		C745.1,89.9,747.8,97,747.8,105.4z M730.2,105.4c0-4.4-1.4-8-4.1-10.9c-2.7-2.9-6.1-4.4-10.1-4.4c-3.4,0-6.3,0.9-8.8,2.7
		c-2.5,1.8-4.4,4.3-5.5,7.6v10c1.2,3.3,3,5.8,5.4,7.5c2.4,1.8,5.3,2.7,8.6,2.7c4,0,7.5-1.4,10.3-4.3
		C728.8,113.5,730.2,109.9,730.2,105.4z"/>
	<path class="st0" d="M802.7,118c0,4.9-1.9,9-5.7,12.1c-3.8,3.1-9,4.7-15.5,4.7c-2.8,0-5.4-0.2-7.8-0.6c-2.4-0.4-4.9-1-7.3-1.9
		c-1.5-0.6-3-1.3-4.6-2.1c-1.5-0.8-3.2-1.7-4.9-2.8l6.1-12c2.7,1.9,5.5,3.5,8.4,4.6c2.9,1.1,5.5,1.7,7.9,1.7c2.1,0,3.7-0.3,4.7-1
		c1-0.7,1.5-1.7,1.5-3.1c0-1.4-0.5-2.6-1.5-3.5c-1-0.9-3.2-2.1-6.6-3.7l-1.6-0.7c-4.5-2-7.6-3.5-9.2-4.5c-1.6-1-3.1-2.2-4.6-3.6
		c-1.2-1.2-2.1-2.6-2.7-4.2c-0.6-1.6-0.9-3.4-0.9-5.5c0-5.3,2-9.4,5.9-12.5c4-3.1,9.4-4.6,16.2-4.6c3.7,0,7.1,0.4,10.2,1.2
		c3.1,0.8,6.5,2.1,10.2,4l-5.7,12.9c-2.4-1.6-4.8-2.8-7.3-3.6c-2.4-0.8-4.8-1.3-7.1-1.3c-1.8,0-3.1,0.3-4,1
		c-0.9,0.6-1.4,1.5-1.4,2.7c0,1,0.5,1.9,1.4,2.8c0.9,0.8,2.5,1.8,4.7,2.8l1.6,0.7c7.8,3.6,13,6.8,15.6,9.6
		C801.4,110.4,802.7,113.9,802.7,118z"/>
</g>
</svg>
