<svg id="Слой_1" data-name="Слой 1" xmlns="http://www.w3.org/2000/svg" viewBox="0 0 476.41 173.24"><defs><style>.cls-1{fill:#fff;}</style></defs><path class="cls-1" d="M494.21,174.58V337.42a5.2,5.2,0,0,1-5.2,5.2H427.22a5.2,5.2,0,0,1-5.2-5.2V261.2a5.19,5.19,0,0,0-5.19-5.2H398.35a5.2,5.2,0,0,0-5.2,5.2v76.22a5.2,5.2,0,0,1-5.2,5.2H326.16a5.19,5.19,0,0,1-5.19-5.2V174.58a5.19,5.19,0,0,1,5.19-5.2H489A5.2,5.2,0,0,1,494.21,174.58Zm-375.36,0V337.42a5.2,5.2,0,0,0,5.2,5.2h61.78a5.19,5.19,0,0,0,5.19-5.2V261.2a5.2,5.2,0,0,1,5.2-5.2h18.49a5.19,5.19,0,0,1,5.19,5.2v76.22a5.2,5.2,0,0,0,5.2,5.2h61.79a5.2,5.2,0,0,0,5.2-5.2V174.58a5.2,5.2,0,0,0-5.2-5.2H124.05a5.2,5.2,0,0,0-5.2,5.2Zm-32.37-5.2H21.29a3.5,3.5,0,0,0-3.5,3.49V339.13a3.5,3.5,0,0,0,3.5,3.49H86.5A3.49,3.49,0,0,0,90,339.13V172.87a3.49,3.49,0,0,0-3.49-3.49Z" transform="translate(-17.79 -169.38)"/></svg>