<?xml version="1.0" encoding="utf-8"?>
<!-- Generator: Adobe Illustrator 26.0.2, SVG Export Plug-In . SVG Version: 6.00 Build 0)  -->
<svg version="1.1" id="Слой_1" xmlns="http://www.w3.org/2000/svg" xmlns:xlink="http://www.w3.org/1999/xlink" x="0px" y="0px"
	 viewBox="0 0 232 53" style="enable-background:new 0 0 232 53;" xml:space="preserve">
<style type="text/css">
	.st0{fill-rule:evenodd;clip-rule:evenodd;fill:#FFFFFF;}
	.st1{fill:#FFFFFF;}
</style>
<path class="st0" d="M26.5,53c14.7,0,26.5-11.9,26.5-26.5S41.2,0,26.5,0C11.9,0,0,11.9,0,26.5S11.9,53,26.5,53z M43.9,31.1v-1.7
	c0-0.2-0.2-0.3-0.3-0.2l-8.1,2.3c0,0-0.1,0-0.1,0.1c-0.9,1-1.6,1.6-1.8,1.8l0,0c-0.5,0.4-1.1,0.7-1.8,0.7h-2.9v-3h2.3
	c0.1,0,0.1,0,0.2-0.1l0.3-0.3c0.1-0.1,0.3-0.3,0.5-0.4l0,0l0,0c0.1-0.1,0.2-0.2,0.3-0.3c0.1-0.1,0.2-0.2,0.3-0.4
	c0.2-0.2,0.4-0.4,0.5-0.6c0.1-0.1,0.3-0.3,0.4-0.5c0.1-0.2,0.3-0.3,0.4-0.5c0-0.1,0.1-0.1,0.1-0.2l0,0c0-0.1,0.1-0.1,0.1-0.2
	c0.1-0.1,0.2-0.3,0.2-0.4c0.2-0.4,0.4-0.7,0.6-1.1c0.1-0.2,0.1-0.3,0.2-0.5l0-0.1c0.1-0.2,0.1-0.4,0.2-0.6c0.1-0.5,0.1-0.9,0.1-1.4
	c0-0.1,0-0.3-0.1-0.4v0c0-0.1,0-0.2-0.1-0.3c-0.1-0.4-0.3-0.9-0.4-1.3C35,21.3,35,21.2,34.9,21c-0.2-0.3-0.4-0.6-0.6-1
	c0-0.1-0.1-0.1-0.1-0.2c0-0.1-0.1-0.1-0.1-0.2c-0.1-0.2-0.3-0.4-0.4-0.6l0,0c0,0-0.1-0.1-0.1-0.1c-0.1-0.1-0.2-0.2-0.3-0.3
	c-0.1-0.1-0.1-0.1-0.2-0.2c-0.1-0.2-0.3-0.3-0.4-0.5c-0.5-0.6-1-1.1-1.5-1.5c-0.1-0.1-0.2-0.2-0.3-0.3c-0.4-0.3-0.7-0.6-1-0.9
	c-0.1-0.1-0.2-0.1-0.2-0.2v0l0,0c0,0-0.1-0.1-0.1-0.1c-0.1-0.1-0.2-0.1-0.2-0.2c0,0-0.1-0.1-0.1-0.1c0,0,0,0-0.1,0l-0.3-0.1v-2.6
	c0-0.4-0.2-0.8-0.4-1.1c-0.3-0.3-0.6-0.4-1.1-0.4c-0.8,0-1.5,0.7-1.5,1.5v1.7l-0.2,0l-0.4-0.1l-0.4-0.1c0,0,0,0,0,0c0,0,0,0,0,0
	c0,0,0,0,0,0c0,0,0,0,0,0c0,0,0,0,0,0h0L22,12.8c-0.1,0-0.2,0.1-0.2,0.2l0.5,0.9c0,0.1,0.1,0.1,0.1,0.2h0c0,0,0,0.1,0.1,0.1
	c0.1,0.2,0.2,0.3,0.2,0.5c0.1,0.1,0.1,0.3,0.2,0.4c0,0.1,0.1,0.1,0.1,0.2c0.1,0.3,0.3,0.6,0.4,0.9v0c0.1,0.3,0.2,0.5,0.3,0.8
	c0.3,0.7,0.5,1.4,0.7,2.1c0.1,0.2,0.1,0.3,0.1,0.5l0,0v0l0,0c0,0.1,0,0.1,0.1,0.2l0,0.1c0.1,0.3,0.2,0.7,0.2,1
	c0,0.2,0.1,0.5,0.1,0.7c0,0.3,0.1,0.5,0.1,0.8c0,0.2,0,0.5,0,0.7c0,0.6-0.1,1.2-0.2,1.7l0,0.1c0,0.1-0.1,0.3-0.1,0.4
	c0,0.1-0.1,0.3-0.1,0.4l0,0c0,0.1,0,0.1-0.1,0.2l0,0c0,0.1-0.1,0.2-0.1,0.3c-0.3,0.6-0.6,1.3-1,1.9c-0.5,0.9-1,1.7-1.4,2.2
	c0,0,0,0.1-0.1,0.1c0,0-0.1,0.1-0.1,0.1c-0.1,0.2,0,0.4,0.2,0.4h3.8v3h-3.8c-1,0-2-0.6-2.4-1.5c-0.2-0.5-0.3-1-0.3-1.5
	c0-0.1-0.1-0.3-0.3-0.3h-7.7c-0.1,0-0.2,0.1-0.2,0.2v0.2c0,4.9,4,8.9,8.9,8.9h13.8c2.6,0,4.1-2.4,5.5-4.7c0.4-0.6,0.8-1.3,1.2-1.9
	c0.8-1.1,2.6-1.9,3.1-2.1C43.8,31.3,43.9,31.2,43.9,31.1z M13.2,27.2l-0.1,0.2c-0.1,0.2,0,0.4,0.2,0.4h7.1c0.1,0,0.2,0,0.2-0.1
	c0.1-0.1,0.2-0.3,0.3-0.4c0.6-1,1.2-2.1,1.4-3c0.5-2-0.5-5.2-1.7-7.8c-0.1-0.2-0.3-0.2-0.4,0L13.2,27.2z"/>
<path class="st1" d="M79,39.2c-2.4,0-4.6-0.5-6.6-1.6c-2-1.1-3.6-2.6-4.8-4.5c-1.2-1.9-1.7-4.1-1.7-6.5s0.6-4.6,1.7-6.5
	c1.2-1.9,2.8-3.4,4.8-4.5c2-1.1,4.2-1.6,6.6-1.6c2.4,0,4.6,0.5,6.6,1.6c2,1.1,3.6,2.6,4.7,4.5c1.2,1.9,1.7,4.1,1.7,6.5
	s-0.6,4.6-1.7,6.5c-1.2,1.9-2.7,3.4-4.7,4.5C83.5,38.7,81.4,39.2,79,39.2z M79,33.8c2,0,3.7-0.7,4.9-2c1.2-1.3,1.9-3,1.9-5.2
	c0-2.2-0.6-3.9-1.9-5.2c-1.2-1.3-2.8-2-4.9-2c-2.1,0-3.7,0.6-4.9,1.9c-1.2,1.3-1.8,3-1.8,5.2c0,2.2,0.6,3.9,1.8,5.2
	C75.2,33.1,76.9,33.8,79,33.8z"/>
<path class="st1" d="M101.7,22.2c0.6-0.9,1.4-1.6,2.5-2.2c1.1-0.6,2.3-0.8,3.7-0.8c1.7,0,3.2,0.4,4.5,1.2c1.4,0.8,2.4,2,3.2,3.5
	c0.8,1.5,1.2,3.3,1.2,5.3c0,2-0.4,3.8-1.2,5.3c-0.8,1.5-1.8,2.7-3.2,3.5c-1.4,0.8-2.9,1.2-4.5,1.2c-1.4,0-2.7-0.3-3.7-0.8
	c-1.1-0.6-1.9-1.3-2.5-2.2v8.5h-6.2V19.4h6.2V22.2z M110.6,29.2c0-1.5-0.4-2.7-1.3-3.5c-0.8-0.9-1.9-1.3-3.2-1.3
	c-1.2,0-2.3,0.4-3.2,1.3c-0.8,0.9-1.3,2-1.3,3.5c0,1.5,0.4,2.7,1.3,3.5c0.9,0.9,1.9,1.3,3.2,1.3s2.3-0.4,3.2-1.3
	C110.1,31.9,110.6,30.7,110.6,29.2z"/>
<path class="st1" d="M139.3,28.9c0,0.6,0,1.1-0.1,1.8h-14.1c0.1,1.2,0.5,2.1,1.2,2.8c0.7,0.6,1.6,0.9,2.7,0.9c1.6,0,2.6-0.6,3.2-1.9
	h6.6c-0.3,1.3-1,2.4-1.9,3.5c-0.9,1-2,1.8-3.3,2.4c-1.3,0.6-2.8,0.9-4.5,0.9c-2,0-3.8-0.4-5.3-1.2c-1.6-0.8-2.8-2-3.6-3.5
	c-0.9-1.5-1.3-3.3-1.3-5.3c0-2,0.4-3.8,1.3-5.3c0.9-1.5,2.1-2.7,3.6-3.5c1.6-0.8,3.3-1.2,5.3-1.2c2,0,3.7,0.4,5.2,1.2
	c1.5,0.8,2.7,1.9,3.6,3.4C138.8,25.2,139.3,26.9,139.3,28.9z M132.9,27.3c0-1-0.4-1.8-1.1-2.5c-0.7-0.6-1.6-0.9-2.7-0.9
	c-1,0-1.9,0.3-2.7,0.9c-0.7,0.6-1.1,1.4-1.3,2.5H132.9z"/>
<path class="st1" d="M154.9,19.2c2.4,0,4.3,0.7,5.7,2.2c1.4,1.5,2.1,3.5,2.1,6.1V39h-6.2V28.4c0-1.3-0.4-2.3-1.1-3
	c-0.7-0.7-1.6-1.1-2.8-1.1c-1.2,0-2.1,0.4-2.8,1.1c-0.7,0.7-1.1,1.7-1.1,3V39h-6.2V19.4h6.2V22c0.6-0.9,1.5-1.5,2.5-2
	C152.4,19.5,153.6,19.2,154.9,19.2z"/>
<path class="st1" d="M176.3,39.2c-1.9,0-3.5-0.3-5-0.9c-1.5-0.6-2.7-1.4-3.6-2.6c-0.9-1.1-1.3-2.5-1.4-4.1h6.6
	c0.1,0.9,0.4,1.6,1,2.1c0.6,0.5,1.3,0.7,2.2,0.7c0.9,0,1.6-0.2,2.2-0.6c0.5-0.4,0.8-1,0.8-1.7c0-0.6-0.2-1.1-0.7-1.5
	c-0.4-0.4-0.9-0.7-1.6-1c-0.6-0.3-1.5-0.5-2.6-0.9c-1.6-0.5-3-1-4-1.5c-1-0.5-1.9-1.2-2.7-2.2c-0.8-1-1.1-2.2-1.1-3.7
	c0-2.3,0.9-4.1,2.6-5.4c1.7-1.3,4-2,6.7-2c2.8,0,5.1,0.7,6.8,2c1.7,1.3,2.6,3.1,2.8,5.4h-6.7c0-0.8-0.4-1.4-0.9-1.9
	c-0.6-0.5-1.3-0.7-2.1-0.7c-0.8,0-1.4,0.2-1.8,0.6c-0.5,0.4-0.7,0.9-0.7,1.6c0,0.8,0.4,1.4,1.2,1.9c0.8,0.4,2,0.9,3.6,1.4
	c1.6,0.5,3,1.1,4,1.5c1,0.5,1.9,1.2,2.7,2.1c0.8,0.9,1.1,2.1,1.1,3.6c0,1.4-0.4,2.7-1.1,3.8c-0.7,1.1-1.8,2.1-3.2,2.7
	C179.9,38.9,178.2,39.2,176.3,39.2z"/>
<path class="st1" d="M208.5,28.9c0,0.6,0,1.1-0.1,1.8h-14.1c0.1,1.2,0.5,2.1,1.2,2.8c0.7,0.6,1.6,0.9,2.7,0.9c1.6,0,2.6-0.6,3.2-1.9
	h6.6c-0.3,1.3-1,2.4-1.9,3.5c-0.9,1-2,1.8-3.3,2.4c-1.3,0.6-2.8,0.9-4.5,0.9c-2,0-3.8-0.4-5.3-1.2c-1.6-0.8-2.8-2-3.6-3.5
	c-0.9-1.5-1.3-3.3-1.3-5.3c0-2,0.4-3.8,1.3-5.3c0.9-1.5,2.1-2.7,3.6-3.5c1.6-0.8,3.3-1.2,5.3-1.2c2,0,3.7,0.4,5.2,1.2
	c1.5,0.8,2.7,1.9,3.6,3.4C208.1,25.2,208.5,26.9,208.5,28.9z M202.2,27.3c0-1-0.4-1.8-1.1-2.5c-0.7-0.6-1.6-0.9-2.7-0.9
	c-1,0-1.9,0.3-2.7,0.9c-0.7,0.6-1.1,1.4-1.3,2.5H202.2z"/>
<path class="st1" d="M210.6,29.2c0-2,0.4-3.8,1.2-5.3c0.8-1.5,1.9-2.7,3.2-3.5c1.4-0.8,2.9-1.2,4.5-1.2c1.4,0,2.7,0.3,3.7,0.8
	c1.1,0.6,1.9,1.3,2.5,2.2v-2.8h6.2V39h-6.2v-2.8c-0.6,0.9-1.5,1.6-2.5,2.2c-1.1,0.6-2.3,0.8-3.7,0.8c-1.6,0-3.2-0.4-4.5-1.2
	c-1.4-0.8-2.4-2-3.2-3.5C211,33,210.6,31.2,210.6,29.2z M225.8,29.2c0-1.5-0.4-2.7-1.3-3.5c-0.8-0.9-1.9-1.3-3.1-1.3
	c-1.2,0-2.3,0.4-3.2,1.3c-0.8,0.8-1.3,2-1.3,3.5c0,1.5,0.4,2.7,1.3,3.6c0.9,0.9,1.9,1.3,3.2,1.3c1.2,0,2.3-0.4,3.1-1.3
	C225.3,31.9,225.8,30.7,225.8,29.2z"/>
</svg>
