<?xml version="1.0" encoding="utf-8"?>
<!-- Generator: Adobe Illustrator 26.0.2, SVG Export Plug-In . SVG Version: 6.00 Build 0)  -->
<svg version="1.1" id="Artwork" xmlns="http://www.w3.org/2000/svg" xmlns:xlink="http://www.w3.org/1999/xlink" x="0px" y="0px"
	 viewBox="0 0 2000 2000" style="enable-background:new 0 0 2000 2000;" xml:space="preserve">
<style type="text/css">
	.st0{fill:#FFFFFF;}
</style>
<g>
	<path class="st0" d="M670.68,1551.49l-74.18-42.65l-153-573.54v485.45l-87.16-50.07V671.51l87.16-49.15
		c0,6.53,84.71,280.29,121.47,398.77l0.93-491.49l104.78-57.49V1551.49z M1224.26,938.57v121.47H857.99v602.72l-98.29-64.91V403.53
		l240.42-143.73l303.89,178.04l-56.56,88.09l-247.32-143.73l-142.13,80.67v475.69H1224.26z M1672.13,790.21l-134.45-91.8v754.8
		l-108.49,60.27V639.06l-130.74-85.31l53.78-80.67l319.91,202.14V790.21z"/>
	<path class="st0" d="M564.97,1021.14C528.21,902.66,443.5,628.9,443.5,622.37l-87.16,49.15v699.16l87.16,50.07V935.3l153,573.54
		l74.18,42.65V472.15L565.9,529.64L564.97,1021.14z"/>
	<polygon class="st0" points="1000.12,382.21 1247.44,525.93 1304.01,437.84 1000.12,259.81 759.7,403.53 759.7,1597.86 
		857.99,1662.77 857.99,1060.04 1224.26,1060.04 1224.26,938.57 857.99,938.57 857.99,462.88 	"/>
	<polygon class="st0" points="1298.44,553.75 1429.19,639.06 1429.19,1513.48 1537.68,1453.2 1537.68,698.41 1672.13,790.21 
		1672.13,675.22 1352.22,473.08 	"/>
	<path class="st0" d="M999.88,46.3L172.81,525.93v950.45l828.47,477.31l825.91-477.54V525.7L999.88,46.3z M271.03,1420.75V577.86
		l728.86-422.14l729.09,421.91v842.89l-727.7,421.91L271.03,1420.75z"/>
</g>
</svg>
